<svg xmlns="http://www.w3.org/2000/svg" xmlns:xlink="http://www.w3.org/1999/xlink" viewBox="0 0 247.42 256.58"><defs><style>.cls-1{opacity:0.4;}.cls-2{fill:#fff;}.cls-3{fill:#bbcee1;}.cls-4{fill:#a7bcce;}.cls-5{fill:#1c75bc;}.cls-6{fill:#0b3b56;}.cls-7{fill:#f4c5a2;}.cls-8{fill:#fed4bd;}.cls-9{fill:#f99840;}.cls-10{fill:#e8ebf5;}.cls-11{fill:#8444b2;}.cls-12{fill:#f0cec9;}.cls-13{fill:#fffbf0;}.cls-14{fill:#f5ddd8;}.cls-15{fill:#dfbab8;}.cls-16{fill:url(#linear-gradient);}.cls-17{fill:#933e31;}.cls-18{fill:#9d4d36;}.cls-19{fill:#2a87c6;}.cls-20{fill:#0f4463;}.cls-21{fill:#ed5561;}.cls-22{fill:#ffbd59;}.cls-23{fill:#1b4e6b;}.cls-24{fill:#1f5e77;}.cls-25{fill:url(#linear-gradient-2);}.cls-26{fill:#ed1c24;}.cls-27{fill:#f5d012;}.cls-28{fill:#edf0f8;}.cls-29{fill:#50e85e;}.cls-30{fill:#9263c1;}.cls-31{fill:#7231a3;}.cls-32{fill:#f4767a;}.cls-33{fill:#d8395a;}.cls-34{fill:#79ff68;}.cls-35{fill:#3cc743;}.cls-36{fill:#ffa8e1;}.cls-37{fill:#ff7ad2;}.cls-38{fill:#de64c6;}.cls-39{fill:url(#linear-gradient-3);}.cls-40{fill:url(#linear-gradient-4);}.cls-41{fill:url(#linear-gradient-5);}</style><linearGradient id="linear-gradient" x1="-476.03" y1="181.42" x2="-503.71" y2="139.74" gradientTransform="translate(632.97)" gradientUnits="userSpaceOnUse"><stop offset="0" stop-color="#1c75bc"/><stop offset="0.28" stop-color="#2077bc"/><stop offset="0.54" stop-color="#2b7ebc"/><stop offset="0.8" stop-color="#3e88bc"/><stop offset="1" stop-color="#5394bc"/></linearGradient><linearGradient id="linear-gradient-2" x1="561.35" y1="148.14" x2="552.88" y2="-25.2" gradientTransform="matrix(-1, 0, 0, 1, 739.53, 0)" xlink:href="#linear-gradient"/><linearGradient id="linear-gradient-3" x1="-0.91" y1="37.18" x2="13.41" y2="105.74" gradientTransform="matrix(1, 0, 0, 1, 0, 0)" xlink:href="#linear-gradient"/><linearGradient id="linear-gradient-4" x1="5.06" y1="35.93" x2="19.38" y2="104.5" gradientTransform="matrix(1, 0, 0, 1, 0, 0)" xlink:href="#linear-gradient"/><linearGradient id="linear-gradient-5" x1="10.98" y1="34.69" x2="25.3" y2="103.26" gradientTransform="matrix(1, 0, 0, 1, 0, 0)" xlink:href="#linear-gradient"/></defs><title>Asset 1</title><g id="Layer_2" data-name="Layer 2"><g id="OBJECTS"><g class="cls-1"><polygon class="cls-2" points="94.22 21.89 94.22 23.06 99.13 25.89 99.13 24.72 94.22 21.89"/><polygon class="cls-2" points="94.22 24.03 94.22 25.19 99.13 28.02 99.13 26.85 94.22 24.03"/><polygon class="cls-2" points="94.22 26.16 94.22 27.32 99.13 30.15 99.13 28.99 94.22 26.16"/><polygon class="cls-2" points="131.23 50.8 131.23 49.63 100.97 32.18 100.97 33.35 131.23 50.8"/><polygon class="cls-2" points="94.22 28.29 94.22 29.46 99.13 32.29 99.13 31.12 94.22 28.29"/><polygon class="cls-2" points="94.22 30.42 94.22 31.59 99.13 34.42 99.13 33.25 94.22 30.42"/><polygon class="cls-2" points="131.23 52.94 131.23 51.77 100.97 34.31 100.97 35.48 131.23 52.94"/><polygon class="cls-2" points="94.22 36.82 94.22 37.99 99.13 40.81 99.13 39.65 94.22 36.82"/><polygon class="cls-2" points="94.22 38.95 94.22 40.12 99.13 42.95 99.13 41.78 94.22 38.95"/><polygon class="cls-2" points="94.22 47.48 94.22 48.65 99.13 51.48 99.13 50.31 94.22 47.48"/><polygon class="cls-2" points="94.22 49.61 94.22 50.78 99.13 53.61 99.13 52.44 94.22 49.61"/><polygon class="cls-2" points="120.06 64.52 100.97 53.5 100.97 54.67 120.06 65.68 120.06 64.52"/><polygon class="cls-2" points="121.06 65.1 121.06 66.26 131.23 72.13 131.23 70.96 121.06 65.1"/><polygon class="cls-2" points="110.56 56.9 100.97 51.37 100.97 52.54 110.56 58.07 110.56 56.9"/><polygon class="cls-2" points="111.56 57.48 111.56 58.65 131.23 69.99 131.23 68.83 111.56 57.48"/><polygon class="cls-2" points="128.64 60.94 128.64 62.1 131.23 63.6 131.23 62.43 128.64 60.94"/><polygon class="cls-2" points="114.56 50.69 100.97 42.84 100.97 44.01 114.56 51.85 114.56 50.69"/><polygon class="cls-2" points="108.99 30.41 100.97 25.78 100.97 26.95 108.99 31.58 108.99 30.41"/><polygon class="cls-2" points="122.15 38 110 30.99 110 32.16 122.15 39.17 122.15 38"/><polygon class="cls-2" points="115.07 36.05 106.51 31.11 106.51 32.28 115.07 37.22 115.07 36.05"/><polygon class="cls-2" points="124.04 41.23 116.07 36.63 116.07 37.8 124.04 42.39 124.04 41.23"/><polygon class="cls-2" points="125.05 41.81 125.05 42.97 131.23 46.54 131.23 45.37 125.05 41.81"/><polygon class="cls-2" points="102.55 30.96 102.55 32.13 108.99 35.84 108.99 34.68 102.55 30.96"/><polygon class="cls-2" points="128.71 46.05 110 35.26 110 36.42 128.71 47.22 128.71 46.05"/><polygon class="cls-2" points="118 46.27 105.77 39.22 105.77 40.38 118 47.44 118 46.27"/><polygon class="cls-2" points="128.71 52.45 119 46.85 119 48.02 128.71 53.61 128.71 52.45"/><polygon class="cls-2" points="127.64 58.23 115.57 51.27 115.57 52.43 127.64 59.39 127.64 58.23"/><polygon class="cls-2" points="121.06 56.57 121.06 57.73 127.64 61.52 127.64 60.36 121.06 56.57"/><polygon class="cls-2" points="103.33 46.34 100.97 44.97 100.97 46.14 103.33 47.51 103.33 46.34"/><polygon class="cls-2" points="107.76 48.9 107.76 50.06 120.06 57.15 120.06 55.99 107.76 48.9"/><polygon class="cls-2" points="106.76 48.31 104.34 46.92 104.34 48.09 106.76 49.48 106.76 48.31"/><polygon class="cls-2" points="117.78 56.81 104.34 49.05 104.34 50.22 117.78 57.97 117.78 56.81"/></g><g class="cls-1"><polygon class="cls-2" points="94.22 56.61 94.22 57.78 99.13 60.6 99.13 59.44 94.22 56.61"/><polygon class="cls-2" points="94.22 58.74 94.22 59.91 99.13 62.74 99.13 61.57 94.22 58.74"/><polygon class="cls-2" points="94.22 60.87 94.22 62.04 99.13 64.87 99.13 63.7 94.22 60.87"/><polygon class="cls-2" points="131.23 85.52 131.23 84.35 100.97 66.89 100.97 68.06 131.23 85.52"/><polygon class="cls-2" points="94.22 63.01 94.22 64.17 99.13 67 99.13 65.83 94.22 63.01"/><polygon class="cls-2" points="94.22 65.14 94.22 66.31 99.13 69.13 99.13 67.97 94.22 65.14"/><polygon class="cls-2" points="131.23 87.65 131.23 86.48 100.97 69.03 100.97 70.19 131.23 87.65"/><polygon class="cls-2" points="94.22 71.53 94.22 72.7 99.13 75.53 99.13 74.36 94.22 71.53"/><polygon class="cls-2" points="94.22 73.67 94.22 74.83 99.13 77.66 99.13 76.5 94.22 73.67"/><polygon class="cls-2" points="94.22 82.2 94.22 83.36 99.13 86.19 99.13 85.03 94.22 82.2"/><polygon class="cls-2" points="94.22 84.33 94.22 85.5 99.13 88.32 99.13 87.16 94.22 84.33"/><polygon class="cls-2" points="120.06 99.23 100.97 88.22 100.97 89.39 120.06 100.4 120.06 99.23"/><polygon class="cls-2" points="121.06 99.81 121.06 100.98 131.23 106.84 131.23 105.67 121.06 99.81"/><polygon class="cls-2" points="110.56 91.62 100.97 86.09 100.97 87.25 110.56 92.79 110.56 91.62"/><polygon class="cls-2" points="111.56 92.2 111.56 93.37 131.23 104.71 131.23 103.54 111.56 92.2"/><polygon class="cls-2" points="128.64 95.65 128.64 96.82 131.23 98.31 131.23 97.14 128.64 95.65"/><polygon class="cls-2" points="114.56 85.4 100.97 77.56 100.97 78.72 114.56 86.57 114.56 85.4"/><polygon class="cls-2" points="108.99 65.13 100.97 60.5 100.97 61.66 108.99 66.3 108.99 65.13"/><polygon class="cls-2" points="122.15 72.72 110 65.71 110 66.88 122.15 73.88 122.15 72.72"/><polygon class="cls-2" points="115.07 70.76 106.51 65.83 106.51 67 115.07 71.93 115.07 70.76"/><polygon class="cls-2" points="124.04 75.94 116.07 71.34 116.07 72.51 124.04 77.11 124.04 75.94"/><polygon class="cls-2" points="125.05 76.52 125.05 77.69 131.23 81.25 131.23 80.09 125.05 76.52"/><polygon class="cls-2" points="102.55 65.67 102.55 66.84 108.99 70.56 108.99 69.39 102.55 65.67"/><polygon class="cls-2" points="128.71 80.76 110 69.97 110 71.14 128.71 81.93 128.71 80.76"/><polygon class="cls-2" points="118 80.98 105.77 73.93 105.77 75.1 118 82.15 118 80.98"/><polygon class="cls-2" points="128.71 87.16 119 81.56 119 82.73 128.71 88.33 128.71 87.16"/><polygon class="cls-2" points="127.64 92.94 115.57 85.98 115.57 87.15 127.64 94.11 127.64 92.94"/><polygon class="cls-2" points="121.06 91.28 121.06 92.45 127.64 96.24 127.64 95.07 121.06 91.28"/><polygon class="cls-2" points="103.33 81.05 100.97 79.69 100.97 80.86 103.33 82.22 103.33 81.05"/><polygon class="cls-2" points="107.76 83.61 107.76 84.78 120.06 91.87 120.06 90.7 107.76 83.61"/><polygon class="cls-2" points="106.76 83.03 104.34 81.63 104.34 82.8 106.76 84.2 106.76 83.03"/><polygon class="cls-2" points="117.78 91.52 104.34 83.77 104.34 84.93 117.78 92.69 117.78 91.52"/></g><polygon class="cls-3" points="56.96 147.53 78.31 135.18 78.31 138.18 56.95 150.5 56.96 147.53"/><polygon class="cls-2" points="58.9 124.02 78.31 135.18 56.96 147.53 37.52 136.35 58.9 124.02"/><polygon class="cls-4" points="37.52 136.35 56.96 147.53 56.95 150.5 37.52 139.25 37.52 136.35"/><polygon class="cls-3" points="35.73 111.88 57.09 99.54 61.29 125.43 39.93 137.74 35.73 111.88"/><polygon class="cls-2" points="54.73 98.17 57.09 99.54 35.73 111.88 33.35 110.5 54.73 98.17"/><polygon class="cls-4" points="33.35 110.5 35.73 111.88 39.93 137.74 37.52 136.35 33.35 110.5"/><path class="cls-5" d="M45.79,135l1.55-2.59,5.57,2.14s-3.17,6.8-5.57,5.5S45.79,135,45.79,135Z"/><path class="cls-6" d="M49.09,98.17l10.63.34,4.09,1.74s.56,4.47,1.44,10.91-.52,23.51-.52,23.51c-4,2-19.53,1.85-19.53,1.85-1-8.16-2.06-34.25-2.06-34.25Z"/><path class="cls-6" d="M57,98.42l3.71,3.17c1.61,9.36,1.45,27.68,1.3,35.46-1.36.22-2.9.36-4.45.45-.38-19.47-6.82-38-7.29-39.3Z"/><polygon class="cls-5" points="58.13 102.76 61.51 104.14 60.19 98.51 58.42 97.3 58.13 102.76"/><polygon class="cls-7" points="50.77 95.74 58.94 97.02 58.13 102.76 50.24 98.12 50.77 95.74"/><path class="cls-8" d="M48.8,90.44c0,4.45,3.24,8.07,7.25,8.07s6.41-3.61,6.41-8.07S60,82.38,56,82.38,48.8,86,48.8,90.44Z"/><polygon class="cls-5" points="50.06 96.93 58.13 102.76 54.59 106.22 49.09 98.17 50.06 96.93"/><path class="cls-9" d="M47.47,86.3a8.7,8.7,0,0,1,8.16-5.44s7.51,0,8.14,9.59a.54.54,0,0,1-.8.5,16.16,16.16,0,0,0-3.7-1.6l.35.66h0s.14.39-.68.32l-3.88-.92a4.93,4.93,0,0,1-2.88,3.27s-.3,3.36-1.51,3.89A10,10,0,0,1,47.47,86.3Z"/><path class="cls-10" d="M218.78,175.52l-49.26-28.59a6.74,6.74,0,0,0-6.75,0L85.18,191.8a3,3,0,0,0,0,5.14l48.16,28a8,8,0,0,0,8,0l77.42-44.79A2.66,2.66,0,0,0,218.78,175.52Z"/><path class="cls-4" d="M218.78,180.13l-77.42,44.79a8,8,0,0,1-8,0l-48.16-28a2.94,2.94,0,0,1-1.48-2.56v3.68s0,0,0,0v0h0a2.93,2.93,0,0,0,1.47,2.51l48.16,28a8,8,0,0,0,8,0l77.42-44.79a2.64,2.64,0,0,0,1.33-2.32h0v-3.68A2.64,2.64,0,0,1,218.78,180.13Z"/><path class="cls-3" d="M218.78,180.13l-77.42,44.79A8,8,0,0,1,137.7,226v3.71a8,8,0,0,0,3.67-1.05l77.42-44.79a2.64,2.64,0,0,0,1.33-2.32h0v-3.68A2.64,2.64,0,0,1,218.78,180.13Z"/><polygon class="cls-11" points="160.06 162.09 182.22 174.64 196.34 166.47 174.19 153.92 160.06 162.09"/><polygon class="cls-12" points="177.88 174.34 177.88 174.83 155.73 162.15 155.73 161.79 177.88 174.34"/><polygon class="cls-13" points="155.73 161.79 177.88 174.34 192 166.17 169.85 153.62 155.73 161.79"/><polygon class="cls-14" points="177.88 174.34 177.88 174.83 192 166.66 192 166.17 177.88 174.34"/><polygon class="cls-15" points="170 154.96 161.47 159.88 161.84 160.09 170.38 155.18 170 154.96"/><polygon class="cls-15" points="170.89 155.47 162.36 160.38 162.73 160.6 171.26 155.68 170.89 155.47"/><polygon class="cls-15" points="172.95 156.63 161.2 163.41 161.58 163.63 173.32 156.84 172.95 156.63"/><polygon class="cls-15" points="173.76 157.09 162.02 163.88 162.39 164.09 174.14 157.31 173.76 157.09"/><polygon class="cls-15" points="174.58 157.56 162.83 164.34 163.2 164.55 174.95 157.77 174.58 157.56"/><polygon class="cls-15" points="175.39 158.02 163.64 164.8 164.02 165.01 175.76 158.23 175.39 158.02"/><polygon class="cls-15" points="176.2 158.48 164.46 165.26 164.83 165.47 176.58 158.69 176.2 158.48"/><polygon class="cls-15" points="177.01 158.94 165.27 165.72 165.64 165.93 177.39 159.15 177.01 158.94"/><polygon class="cls-15" points="177.83 159.4 166.08 166.18 166.46 166.39 178.2 159.61 177.83 159.4"/><polygon class="cls-15" points="178.64 159.86 166.9 166.64 167.27 166.85 179.02 160.07 178.64 159.86"/><polygon class="cls-15" points="179.46 160.32 167.71 167.1 168.08 167.32 179.83 160.54 179.46 160.32"/><polygon class="cls-15" points="180.27 160.79 168.52 167.57 168.9 167.78 180.64 161 180.27 160.79"/><polygon class="cls-15" points="181.08 161.25 169.33 168.03 169.71 168.24 181.46 161.46 181.08 161.25"/><polygon class="cls-15" points="181.89 161.71 170.15 168.49 170.52 168.7 182.27 161.92 181.89 161.71"/><polygon class="cls-15" points="182.71 162.17 170.96 168.95 171.33 169.16 183.08 162.38 182.71 162.17"/><polygon class="cls-15" points="183.52 162.63 171.77 169.41 172.15 169.62 183.89 162.84 183.52 162.63"/><polygon class="cls-15" points="184.33 163.09 172.59 169.87 172.96 170.09 184.71 163.31 184.33 163.09"/><path class="cls-2" d="M185.5,184.76,164.4,172.57a1.88,1.88,0,0,0-1.89,0L131.9,190.24a.83.83,0,0,0,0,1.44l20.79,12a2.24,2.24,0,0,0,2.24,0l30.57-17.64A.74.74,0,0,0,185.5,184.76Z"/><path class="cls-3" d="M185.49,186.05,154.93,203.7a2.24,2.24,0,0,1-2.24,0l-20.79-12a.82.82,0,0,1-.41-.71v1.46h0a.82.82,0,0,0,.41.7l20.79,12a2.24,2.24,0,0,0,2.24,0l30.57-17.64a.74.74,0,0,0,.37-.65h0v-1.46A.74.74,0,0,1,185.49,186.05Z"/><path class="cls-2" d="M130.64,162.21,162,144.13a.59.59,0,0,1,.62,0h0l.8.45-.63.86-.24.27v25a1,1,0,0,1-.51.89l-29.79,17.19,0,.26-.95,1.33-.9-.52h0a.47.47,0,0,1-.22-.4V163.13A1.06,1.06,0,0,1,130.64,162.21Z"/><path class="cls-3" d="M131.53,162.73l31.42-18.13a.46.46,0,0,1,.69.4v26.38a1,1,0,0,1-.51.89L131.7,190.4A.47.47,0,0,1,131,190V163.64A1.06,1.06,0,0,1,131.53,162.73Z"/><polygon class="cls-16" points="132.02 164.32 162.87 146.41 162.87 169.96 132.01 187.82 132.02 164.32"/><polygon class="cls-3" points="165.06 175.56 163.5 174.66 161.74 175.68 163.29 176.58 165.06 175.56"/><polygon class="cls-3" points="162.85 176.83 161.3 175.93 159.54 176.95 161.09 177.84 162.85 176.83"/><polygon class="cls-3" points="160.65 178.1 159.1 177.2 157.34 178.21 158.88 179.11 160.65 178.1"/><polygon class="cls-3" points="158.45 179.36 156.9 178.46 155.13 179.48 156.68 180.38 158.45 179.36"/><polygon class="cls-3" points="156.25 180.63 154.7 179.73 152.93 180.75 154.48 181.65 156.25 180.63"/><polygon class="cls-3" points="154.05 181.9 152.5 181 150.73 182.01 152.28 182.91 154.05 181.9"/><polygon class="cls-3" points="151.85 183.16 150.3 182.26 148.53 183.28 150.08 184.18 151.85 183.16"/><polygon class="cls-3" points="149.65 184.43 148.09 183.53 146.33 184.55 147.88 185.45 149.65 184.43"/><polygon class="cls-3" points="147.45 185.7 145.89 184.8 144.13 185.82 145.68 186.71 147.45 185.7"/><polygon class="cls-3" points="145.25 186.97 143.69 186.06 141.93 187.08 143.48 187.98 145.25 186.97"/><polygon class="cls-3" points="143.04 188.23 141.49 187.33 139.73 188.35 141.28 189.25 143.04 188.23"/><polygon class="cls-3" points="140.84 189.5 139.29 188.6 137.53 189.62 139.07 190.51 140.84 189.5"/><polygon class="cls-3" points="137.09 189.87 135.32 190.88 136.87 191.78 138.64 190.77 137.09 189.87"/><polygon class="cls-3" points="165.29 177.74 167.06 176.73 165.51 175.83 163.75 176.84 165.29 177.74"/><polygon class="cls-3" points="161.55 178.11 163.09 179.01 164.86 177.99 163.31 177.09 161.55 178.11"/><polygon class="cls-3" points="159.34 179.38 160.89 180.28 162.66 179.26 161.11 178.36 159.34 179.38"/><polygon class="cls-3" points="157.14 180.64 158.69 181.54 160.46 180.53 158.91 179.63 157.14 180.64"/><polygon class="cls-3" points="154.94 181.91 156.49 182.81 158.26 181.79 156.71 180.89 154.94 181.91"/><polygon class="cls-3" points="152.74 183.18 154.29 184.08 156.06 183.06 154.51 182.16 152.74 183.18"/><polygon class="cls-3" points="150.54 184.45 152.09 185.34 153.86 184.33 152.31 183.43 150.54 184.45"/><polygon class="cls-3" points="148.34 185.71 149.89 186.61 151.66 185.6 150.1 184.69 148.34 185.71"/><polygon class="cls-3" points="146.14 186.98 147.69 187.88 149.46 186.86 147.9 185.96 146.14 186.98"/><polygon class="cls-3" points="143.94 188.25 145.49 189.15 147.25 188.13 145.7 187.23 143.94 188.25"/><polygon class="cls-3" points="141.74 189.51 143.28 190.41 145.05 189.4 143.5 188.5 141.74 189.51"/><polygon class="cls-3" points="139.53 190.78 141.08 191.68 142.85 190.66 141.3 189.76 139.53 190.78"/><polygon class="cls-3" points="139.1 191.03 137.33 192.05 138.88 192.95 140.65 191.93 139.1 191.03"/><polygon class="cls-3" points="167.3 178.91 169.07 177.89 167.52 176.99 165.76 178.01 167.3 178.91"/><polygon class="cls-3" points="163.56 179.27 165.1 180.17 166.87 179.16 165.32 178.26 163.56 179.27"/><polygon class="cls-3" points="164.67 180.42 163.12 179.52 161.35 180.54 162.9 181.44 164.67 180.42"/><polygon class="cls-3" points="159.15 181.81 160.7 182.71 162.47 181.69 160.92 180.79 159.15 181.81"/><polygon class="cls-3" points="156.95 183.07 158.5 183.97 160.27 182.96 158.72 182.06 156.95 183.07"/><polygon class="cls-3" points="154.75 184.34 156.3 185.24 158.07 184.22 156.51 183.32 154.75 184.34"/><polygon class="cls-3" points="152.55 185.61 154.1 186.51 155.87 185.49 154.31 184.59 152.55 185.61"/><polygon class="cls-3" points="150.35 186.88 151.9 187.77 153.67 186.76 152.11 185.86 150.35 186.88"/><polygon class="cls-3" points="148.15 188.14 149.69 189.04 151.46 188.03 149.91 187.13 148.15 188.14"/><polygon class="cls-3" points="145.95 189.41 147.49 190.31 149.26 189.29 147.71 188.39 145.95 189.41"/><polygon class="cls-3" points="143.75 190.68 145.29 191.57 147.06 190.56 145.51 189.66 143.75 190.68"/><polygon class="cls-3" points="144.86 191.83 143.31 190.93 141.54 191.94 143.09 192.84 144.86 191.83"/><polygon class="cls-3" points="141.11 192.19 139.34 193.21 140.89 194.11 142.66 193.09 141.11 192.19"/><polygon class="cls-3" points="169.31 180.07 171.08 179.05 169.53 178.15 167.77 179.17 169.31 180.07"/><polygon class="cls-3" points="168.88 180.32 167.33 179.42 165.56 180.44 167.11 181.34 168.88 180.32"/><polygon class="cls-3" points="166.68 181.59 165.13 180.69 163.36 181.71 164.91 182.6 166.68 181.59"/><polygon class="cls-3" points="164.48 182.85 162.93 181.95 161.16 182.97 162.71 183.87 164.48 182.85"/><polygon class="cls-3" points="162.28 184.12 160.73 183.22 158.96 184.24 160.51 185.14 162.28 184.12"/><polygon class="cls-3" points="160.08 185.39 158.52 184.49 156.76 185.51 158.31 186.4 160.08 185.39"/><polygon class="cls-3" points="157.88 186.66 156.32 185.75 154.56 186.77 156.11 187.67 157.88 186.66"/><polygon class="cls-3" points="155.68 187.92 154.12 187.02 152.36 188.04 153.91 188.94 155.68 187.92"/><polygon class="cls-3" points="153.47 189.19 151.92 188.29 150.16 189.31 151.7 190.21 153.47 189.19"/><polygon class="cls-3" points="151.27 190.46 149.72 189.56 147.96 190.57 149.5 191.47 151.27 190.46"/><polygon class="cls-3" points="149.07 191.72 147.52 190.82 145.75 191.84 147.3 192.74 149.07 191.72"/><polygon class="cls-3" points="146.87 192.99 145.32 192.09 143.55 193.11 145.1 194.01 146.87 192.99"/><polygon class="cls-3" points="143.12 193.36 141.35 194.38 142.9 195.27 144.67 194.26 143.12 193.36"/><polygon class="cls-3" points="171.32 181.23 173.09 180.22 171.54 179.32 169.78 180.34 171.32 181.23"/><polygon class="cls-3" points="170.89 181.49 169.34 180.58 167.57 181.6 169.12 182.5 170.89 181.49"/><polygon class="cls-3" points="168.69 182.75 167.14 181.85 165.37 182.87 166.92 183.77 168.69 182.75"/><polygon class="cls-3" points="166.49 184.02 164.94 183.12 163.17 184.14 164.72 185.03 166.49 184.02"/><polygon class="cls-3" points="164.29 185.29 162.74 184.38 160.97 185.4 162.52 186.3 164.29 185.29"/><polygon class="cls-3" points="162.09 186.55 160.53 185.65 158.77 186.67 160.32 187.57 162.09 186.55"/><polygon class="cls-3" points="159.88 187.82 158.33 186.92 156.57 187.94 158.12 188.84 159.88 187.82"/><polygon class="cls-3" points="157.68 189.09 156.13 188.19 154.37 189.2 155.91 190.1 157.68 189.09"/><polygon class="cls-3" points="155.48 190.35 153.93 189.45 152.16 190.47 153.71 191.37 155.48 190.35"/><polygon class="cls-3" points="153.28 191.62 151.73 190.72 149.96 191.74 151.51 192.64 153.28 191.62"/><polygon class="cls-3" points="151.08 192.89 149.53 191.99 147.76 193 149.31 193.9 151.08 192.89"/><polygon class="cls-3" points="148.88 194.16 147.33 193.25 145.56 194.27 147.11 195.17 148.88 194.16"/><polygon class="cls-3" points="145.13 194.52 143.36 195.54 144.91 196.44 146.68 195.42 145.13 194.52"/><polygon class="cls-3" points="173.55 180.48 171.78 181.5 173.33 182.4 175.1 181.38 173.55 180.48"/><polygon class="cls-3" points="169.58 182.76 171.13 183.66 172.9 182.65 171.35 181.75 169.58 182.76"/><polygon class="cls-3" points="167.38 184.03 168.93 184.93 170.7 183.92 169.15 183.01 167.38 184.03"/><polygon class="cls-3" points="165.18 185.3 166.73 186.2 168.5 185.18 166.94 184.28 165.18 185.3"/><polygon class="cls-3" points="162.98 186.57 164.53 187.47 166.3 186.45 164.74 185.55 162.98 186.57"/><polygon class="cls-3" points="160.78 187.83 162.33 188.73 164.09 187.72 162.54 186.82 160.78 187.83"/><polygon class="cls-3" points="160.34 188.08 158.14 189.35 158.14 189.35 157.71 189.6 155.94 190.62 155.94 190.62 155.04 191.13 153.74 191.88 153.74 191.88 152.35 192.69 149.77 194.17 151.32 195.07 154.01 193.52 155.29 192.78 155.29 192.78 156.63 192.01 157.49 191.52 157.49 191.52 159.23 190.52 159.69 190.25 159.69 190.25 161.89 188.98 160.34 188.08"/><polygon class="cls-3" points="147.57 195.44 149.12 196.33 150.89 195.32 149.34 194.42 147.57 195.44"/><polygon class="cls-3" points="145.37 196.7 146.92 197.6 148.69 196.59 147.13 195.69 145.37 196.7"/><path class="cls-3" d="M172.85,191l-5.54-3.19a.47.47,0,0,0-.47,0l-7.68,4.43a.21.21,0,0,0,0,.36l5.46,3.15a.56.56,0,0,0,.56,0l7.67-4.43A.19.19,0,0,0,172.85,191Z"/><polygon class="cls-4" points="94.74 227.39 94.73 225.32 94.72 227.24 94.73 229.31 94.74 227.39"/><polygon class="cls-4" points="113.78 229.88 111.25 231.35 111.25 233.27 113.77 231.8 113.78 229.88"/><polygon class="cls-4" points="84.44 231.35 81.9 229.88 81.9 231.8 84.44 233.27 84.44 231.35"/><path class="cls-4" d="M89.83,238c0-.07,0-.14.05-.21s0-.16.07-.24.05-.13.08-.2.07-.17.12-.25l.11-.18c.06-.09.12-.19.19-.28l.13-.16a4.65,4.65,0,0,1,.34-.37l.13-.13.25-.21.23-.18.29-.19.31-.2a8.36,8.36,0,0,1,.76-.39l.23-.1.64-.24.23-.08.42-.12.32-.09.45-.1.31-.06c.3-.05.61-.1.92-.13l.29,0,.55,0H98.4l.41,0,.37,0,.4,0,.36.05.43.07.34.07.5.12.28.07c.3.09.59.18.87.29l.41.17.21.09c.2.1.4.2.59.31,1.6.92,2.39,2.13,2.39,3.34v-1.92c0-1.21-.79-2.41-2.39-3.34-.19-.11-.39-.21-.59-.31l-.21-.09-.36-.16h0c-.28-.11-.57-.21-.87-.29l-.07,0-.21-.05-.5-.12-.13,0-.2,0-.43-.07-.17,0-.19,0-.41,0-.19,0h-.18l-.41,0H97.24l-.55,0h-.29c-.31,0-.62.07-.92.13h0l-.26.06-.45.1-.32.09-.42.12-.09,0-.14.05-.64.24-.23.1a8.39,8.39,0,0,0-.76.39l-.1.06-.21.14-.29.19-.23.18-.25.21-.05,0-.08.09a4.65,4.65,0,0,0-.34.37l-.08.08-.06.08c-.07.09-.13.19-.19.28l-.08.12,0,.06c0,.08-.08.17-.12.25s-.05.1-.07.15v.05c0,.08,0,.16-.07.24s0,.11,0,.16,0,0,0,0,0,.17,0,.26,0,.11,0,.17,0,0,0,.07v1.92c0-.08,0-.16,0-.24S89.81,238.07,89.83,238Z"/><path class="cls-4" d="M113.76,238.37c0,.12-.08.23-.13.35l-.1.23-.1.22-.12.23-.12.21-.16.27-.13.19-.2.27-.13.18c-.13.17-.27.33-.42.49l-.06.06-.42.42-.35.32v1.92l.29-.26.06-.06.42-.42.07-.07c.15-.16.29-.33.42-.49l0,0,.1-.14.2-.27.13-.2.16-.27.05-.09.06-.12.12-.23.1-.22.1-.23,0-.1.08-.24h3.58v-1.92Z"/><path class="cls-4" d="M84.5,243.74v-1.92A8,8,0,0,1,82,238.37H78.44v1.92H82A8,8,0,0,0,84.5,243.74Z"/><path class="cls-4" d="M107,244.35c-.43.17-.87.32-1.32.46l-.76.21-.71.2-.78.17-.73.15c-.54.1-1.09.18-1.64.24v1.92c.55-.06,1.1-.14,1.64-.24h.08l.66-.14.78-.17.72-.2.75-.21.09,0q.63-.2,1.23-.44l2.54,1.47,4.35-2.53v-1.92l-4.35,2.53Z"/><path class="cls-4" d="M94.84,245.78c-.39,0-.77-.1-1.15-.16l-.82-.14-.71-.15-1-.23-.74-.2-.33-.1c-.42-.14-.84-.28-1.25-.44h0l-2.52,1.47L82,243.29v1.92l4.38,2.53,2.52-1.47c.41.16.83.3,1.26.44l.32.1.33.1.42.1,1,.23.31.08.4.07.82.14.37.06.78.1h0v2.07H101v-1.92H94.85Z"/><path class="cls-2" d="M109.5,245.82,107,244.35a23.48,23.48,0,0,1-5.94,1.43v2.07H94.85v-2.07a23.66,23.66,0,0,1-6-1.43l-2.52,1.47L82,243.29l2.52-1.47A8,8,0,0,1,82,238.37H78.44l0-3.58H82a7.89,7.89,0,0,1,2.45-3.45l-2.54-1.47,4.35-2.53,2.54,1.47a23.62,23.62,0,0,1,5.94-1.43v-2.07h6.17v2.07a23.81,23.81,0,0,1,6,1.43l2.52-1.46,4.38,2.53-2.52,1.47a8,8,0,0,1,2.49,3.45h3.58l0,3.58h-3.58a7.85,7.85,0,0,1-2.45,3.45l2.54,1.47ZM92.17,239.9a12.61,12.61,0,0,0,11.45,0c3.15-1.83,3.14-4.8,0-6.63a12.62,12.62,0,0,0-11.45,0c-3.15,1.83-3.13,4.8,0,6.63"/><polygon class="cls-4" points="62.41 223.6 62.4 221.91 62.4 223.48 62.41 225.17 62.41 223.6"/><polygon class="cls-4" points="77.96 225.64 75.9 226.84 75.9 228.4 77.96 227.21 77.96 225.64"/><polygon class="cls-4" points="54 226.84 51.92 225.64 51.92 227.21 53.99 228.4 54 226.84"/><path class="cls-4" d="M58.4,232.26c0-.06,0-.11,0-.17s0-.13.06-.2l.07-.16.1-.21.09-.15.16-.23L59,231a3.82,3.82,0,0,1,.28-.3l.11-.11.2-.17.18-.15.24-.16.25-.16a6.83,6.83,0,0,1,.62-.32l.19-.08.52-.2.19-.07.34-.1.26-.07.36-.08L63,229l.75-.1.23,0,.45,0h1l.34,0,.31,0,.33,0,.3,0L67,229l.27.06.41.1.23.06c.24.07.48.15.71.24l.33.14.17.07.49.25a3.31,3.31,0,0,1,2,2.73v-1.57a3.31,3.31,0,0,0-2-2.73l-.49-.25-.17-.07-.3-.13h0c-.23-.09-.47-.17-.71-.24l-.06,0-.17,0-.41-.1-.11,0-.16,0-.35-.06-.14,0-.16,0-.33,0-.16,0h-.15l-.34,0h-1l-.45,0h-.23l-.75.1h0l-.21,0-.37.08-.26.07-.34.1-.07,0-.12,0-.52.2-.19.08a6.83,6.83,0,0,0-.62.32l-.08,0-.17.11-.24.16-.18.15-.2.17,0,0-.07.07a3.78,3.78,0,0,0-.28.3l-.06.07,0,.07-.16.23-.07.1,0,.05c0,.07-.07.14-.1.21l-.06.12v0c0,.07,0,.13-.06.2s0,.09,0,.13v0c0,.07,0,.14,0,.21s0,.09,0,.14v1.62c0-.06,0-.13,0-.19S58.38,232.33,58.4,232.26Z"/><path class="cls-4" d="M77.95,232.58c0,.09-.07.19-.1.28l-.08.19-.08.18-.1.19-.1.17-.13.22-.1.16-.16.22-.11.15c-.11.14-.22.27-.34.4l-.05.05-.34.34-.29.26V237l.24-.21,0,0,.34-.34.05-.05c.12-.13.24-.27.34-.4l0,0,.08-.11.16-.22.1-.16.13-.22,0-.07.05-.1.1-.19.08-.18.08-.19,0-.08.07-.2h2.92v-1.57Z"/><path class="cls-4" d="M54,237v-1.57a6.51,6.51,0,0,1-2-2.82H49.09v1.57H52A6.51,6.51,0,0,0,54,237Z"/><path class="cls-4" d="M72.4,237.46c-.35.14-.71.26-1.08.38l-.62.17-.58.16-.64.14-.6.12c-.44.08-.89.14-1.34.2v1.57c.45-.05.9-.12,1.34-.2h.07l.54-.11.64-.14.59-.16.61-.17.07,0q.51-.16,1-.36l2.07,1.2L78,238.16v-1.57l-3.56,2.07Z"/><path class="cls-4" d="M62.49,238.63l-.94-.13-.67-.12-.58-.12-.78-.19-.61-.17-.27-.08c-.35-.11-.69-.23-1-.36h0l-2.06,1.2L52,236.59v1.57l3.58,2.07,2.06-1.2c.33.13.68.25,1,.36l.27.08.27.08.34.08.78.19.25.06.32.06.67.12.3.05.63.08h0v1.69h5v-1.57h-5Z"/><path class="cls-2" d="M74.47,238.66l-2.07-1.2a19.18,19.18,0,0,1-4.86,1.17v1.69h-5v-1.69a19.34,19.34,0,0,1-4.87-1.17l-2.06,1.2L52,236.59l2.06-1.2a6.51,6.51,0,0,1-2-2.82H49.09l0-2.92H52a6.45,6.45,0,0,1,2-2.82l-2.07-1.2,3.56-2.07,2.07,1.2a19.29,19.29,0,0,1,4.86-1.17v-1.69h5v1.69a19.45,19.45,0,0,1,4.87,1.17l2.06-1.2L78,225.64l-2.06,1.2a6.55,6.55,0,0,1,2,2.82h2.92l0,2.92H77.95a6.41,6.41,0,0,1-2,2.82l2.07,1.2Zm-14.16-4.83a10.3,10.3,0,0,0,9.35,0c2.57-1.5,2.56-3.92,0-5.42a10.31,10.31,0,0,0-9.35,0c-2.57,1.5-2.56,3.92,0,5.42"/><path class="cls-17" d="M175.18,243.89c3.11,0,2.09-2.33,2.09-2.33,4.61-1.41,6.87-.62,6.88-.62a21.37,21.37,0,0,1,.73,7.51c0,.48-.34.78-.79.95a18.23,18.23,0,0,1-9.36,1.09c-3.4-.33-7-3.48-6.18-6.71C169.06,241.75,172,243.86,175.18,243.89Z"/><path class="cls-5" d="M176.51,214.68a4.45,4.45,0,0,1,5.06-1.51l27.78,5.36-1,7.14a11.07,11.07,0,0,1-11.7,3.48,43.3,43.3,0,0,1-12.28-5.61l.94,19.69a11.06,11.06,0,0,1-8.24-1c-.65-.39-1.26-19.38-1.45-24.25A4.45,4.45,0,0,1,176.51,214.68Z"/><path class="cls-18" d="M161.84,249.58c3.23,0,2.17-2.42,2.17-2.42,4.79-1.46,7.14-.65,7.14-.65a22.18,22.18,0,0,1,.76,7.8c0,.5-.35.81-.82,1a18.92,18.92,0,0,1-9.71,1.13c-3.53-.34-7.27-3.61-6.42-7C155.49,247.37,158.57,249.55,161.84,249.58Z"/><polygon class="cls-3" points="193.42 241.75 217.26 227.97 217.26 231.32 193.41 245.07 193.42 241.75"/><polygon class="cls-2" points="195.59 215.51 217.26 227.97 193.42 241.75 171.71 229.28 195.59 215.51"/><polygon class="cls-4" points="171.71 229.28 193.42 241.75 193.41 245.07 171.71 232.52 171.71 229.28"/><path class="cls-19" d="M163.22,219.25a4.62,4.62,0,0,1,5.25-1.57l28.85,5.56-1.08,7.41a11.5,11.5,0,0,1-12.15,3.62,45,45,0,0,1-12.76-5.83l1,20.45a11.49,11.49,0,0,1-8.55-1c-.68-.41-1.31-20.12-1.51-25.18A4.62,4.62,0,0,1,163.22,219.25Z"/><ellipse class="cls-8" cx="193.17" cy="174.76" rx="7.15" ry="8.81" transform="translate(-16.22 19.81) rotate(-5.63)"/><path class="cls-7" d="M180.18,186.75s-1.71.41-2.3.47-2.84.53-3.75.25.81-.89,1.23-1.2.41-1.11-.52-1.39-3-.15-4.13-.31,1.1-3.51,2.91-3.82a7.64,7.64,0,0,1,4.95.67c1.54.76,2.38,2,3.1,2.29Z"/><path class="cls-20" d="M180,182.18l11.68,2.93.59,7.42-13.79-4.73C178.18,185.18,180,182.18,180,182.18Z"/><path class="cls-20" d="M208.8,185.32s3.23,4.07,0,9.68c0,0-2.26,3.13-8.46.07Z"/><path class="cls-6" d="M199.23,180.56a15.65,15.65,0,0,0-9,2.42,3,3,0,0,1-1.08,1.36c-.79.53-4.71,2.1-4.71,2.1s1.73,23-.26,34.2c0,0,8.52,6.65,21.81,0,0,0,1.94-28.24,2.8-35.32C208.8,185.32,206.59,182.58,199.23,180.56Z"/><polygon class="cls-3" points="201.44 218.53 225.29 204.75 217.26 228 193.41 241.75 201.44 218.53"/><polygon class="cls-2" points="222.66 203.22 225.29 204.75 201.44 218.53 198.78 216.99 222.66 203.22"/><polygon class="cls-4" points="198.78 216.98 201.44 218.53 193.41 241.75 190.72 240.2 198.78 216.98"/><path class="cls-7" d="M164.47,196.94s-1.3-1.31-1.8-1.69-2.25-2-3.23-2.24.7,1.48.9,2-1-.43-1.92-.77a4.48,4.48,0,0,0-3.13.11c-2.26.8-2.15,5.32-.3,4.78,3-.88,4.4,1.53,6.21,2a18.18,18.18,0,0,0,2.57.47Z"/><path class="cls-20" d="M184.45,186.44l-9.86,13.07-10.25-3s-2.2,2.77-1.49,5.71l13.68,5.33,11.12-12.23S191.37,187.53,184.45,186.44Z"/><path class="cls-20" d="M190.18,162s-.76,1.82,2.87,2.31,8.12,2.3,9.29,6.13c.75,2.45-.12,5.08-1.35,7.21a13.62,13.62,0,0,1-1.44,2.1,7.83,7.83,0,0,1-5.35-.92,9.25,9.25,0,0,1-2.88-3.51s-2.16.9-2.83-.9c-.5-1.32-2.06-1.65-2.91-2.37C185.58,172,180.68,164,190.18,162Z"/><path class="cls-4" d="M138.3,203h-1.85v2h1.85a1.25,1.25,0,0,1,1.25,1.25v3.25a1.25,1.25,0,0,1-1.25,1.25h-2.71v2h2.71a3.25,3.25,0,0,0,3.25-3.25v-3.25A3.25,3.25,0,0,0,138.3,203Z"/><path class="cls-3" d="M137.6,201.89v11.25c0,1.74-2.6,3.16-5.8,3.16s-5.8-1.41-5.8-3.16V201.89Z"/><ellipse class="cls-2" cx="131.8" cy="201.89" rx="5.8" ry="3.16"/><ellipse class="cls-4" cx="131.8" cy="201.85" rx="4.65" ry="2.47"/><path class="cls-18" d="M131.8,201c-2,0-3.76.69-4.39,1.66.63,1,2.35,1.66,4.39,1.66s3.76-.69,4.39-1.66C135.56,201.69,133.83,201,131.8,201Z"/><path class="cls-4" d="M134,204.81v11.25a6.24,6.24,0,0,0,2.74-1.26V203.55A6.24,6.24,0,0,1,134,204.81Z"/><path class="cls-10" d="M154,138.06l-49.26-28.59a6.74,6.74,0,0,0-6.75,0l-77.6,44.89a3,3,0,0,0,0,5.14l48.16,28a8,8,0,0,0,8,0L154,142.67A2.66,2.66,0,0,0,154,138.06Z"/><path class="cls-4" d="M154,142.67,76.62,187.45a8,8,0,0,1-8,0l-48.16-28A2.94,2.94,0,0,1,19,156.93v3.68s0,0,0,0v0h0a2.93,2.93,0,0,0,1.47,2.51l48.16,28a8,8,0,0,0,8,0L154,146.37a2.64,2.64,0,0,0,1.33-2.32h0v-3.68A2.64,2.64,0,0,1,154,142.67Z"/><path class="cls-3" d="M154,142.67,76.62,187.45A8,8,0,0,1,73,188.5v3.71a8,8,0,0,0,3.67-1.05L154,146.37a2.64,2.64,0,0,0,1.33-2.32h0v-3.68A2.64,2.64,0,0,1,154,142.67Z"/><path class="cls-2" d="M106.81,138.85,85.72,126.66a1.88,1.88,0,0,0-1.88,0L53.22,144.33a.83.83,0,0,0,0,1.44l20.79,12a2.24,2.24,0,0,0,2.24,0l30.57-17.64A.74.74,0,0,0,106.81,138.85Z"/><path class="cls-3" d="M106.81,140.14,76.24,157.78a2.24,2.24,0,0,1-2.24,0l-20.79-12a.82.82,0,0,1-.41-.71v1.46h0a.82.82,0,0,0,.41.7l20.79,12a2.24,2.24,0,0,0,2.24,0l30.57-17.64a.74.74,0,0,0,.37-.65h0V139.5A.74.74,0,0,1,106.81,140.14Z"/><polygon class="cls-3" points="93.03 134.13 91.48 133.23 89.71 134.25 91.26 135.15 93.03 134.13"/><polygon class="cls-3" points="90.83 135.4 89.28 134.5 87.51 135.52 89.06 136.42 90.83 135.4"/><polygon class="cls-3" points="88.63 136.67 87.07 135.77 85.31 136.78 86.86 137.68 88.63 136.67"/><polygon class="cls-3" points="86.43 137.94 84.87 137.03 83.11 138.05 84.66 138.95 86.43 137.94"/><polygon class="cls-3" points="84.22 139.2 82.67 138.3 80.91 139.32 82.45 140.22 84.22 139.2"/><polygon class="cls-3" points="82.02 140.47 80.47 139.57 78.71 140.59 80.25 141.48 82.02 140.47"/><polygon class="cls-3" points="79.82 141.74 78.27 140.84 76.5 141.85 78.05 142.75 79.82 141.74"/><polygon class="cls-3" points="77.62 143 76.07 142.1 74.3 143.12 75.85 144.02 77.62 143"/><polygon class="cls-3" points="75.42 144.27 73.87 143.37 72.1 144.39 73.65 145.28 75.42 144.27"/><polygon class="cls-3" points="73.22 145.54 71.67 144.64 69.9 145.65 71.45 146.55 73.22 145.54"/><polygon class="cls-3" points="71.02 146.8 69.47 145.9 67.7 146.92 69.25 147.82 71.02 146.8"/><polygon class="cls-3" points="68.82 148.07 67.26 147.17 65.5 148.19 67.05 149.09 68.82 148.07"/><polygon class="cls-3" points="65.06 148.44 63.3 149.46 64.85 150.35 66.61 149.34 65.06 148.44"/><polygon class="cls-3" points="93.27 136.31 95.04 135.3 93.49 134.4 91.72 135.41 93.27 136.31"/><polygon class="cls-3" points="89.52 136.68 91.07 137.58 92.84 136.56 91.28 135.66 89.52 136.68"/><polygon class="cls-3" points="87.32 137.95 88.87 138.85 90.64 137.83 89.08 136.93 87.32 137.95"/><polygon class="cls-3" points="85.12 139.22 86.67 140.11 88.44 139.1 86.88 138.2 85.12 139.22"/><polygon class="cls-3" points="82.92 140.48 84.46 141.38 86.23 140.37 84.68 139.47 82.92 140.48"/><polygon class="cls-3" points="80.72 141.75 82.26 142.65 84.03 141.63 82.48 140.73 80.72 141.75"/><polygon class="cls-3" points="78.51 143.02 80.06 143.91 81.83 142.9 80.28 142 78.51 143.02"/><polygon class="cls-3" points="76.31 144.28 77.86 145.18 79.63 144.17 78.08 143.27 76.31 144.28"/><polygon class="cls-3" points="74.11 145.55 75.66 146.45 77.43 145.43 75.88 144.53 74.11 145.55"/><polygon class="cls-3" points="71.91 146.82 73.46 147.72 75.23 146.7 73.67 145.8 71.91 146.82"/><polygon class="cls-3" points="69.71 148.09 71.26 148.98 73.03 147.97 71.47 147.07 69.71 148.09"/><polygon class="cls-3" points="67.51 149.35 69.06 150.25 70.83 149.24 69.27 148.34 67.51 149.35"/><polygon class="cls-3" points="67.07 149.6 65.31 150.62 66.86 151.52 68.62 150.5 67.07 149.6"/><polygon class="cls-3" points="95.28 137.48 97.05 136.46 95.5 135.56 93.73 136.58 95.28 137.48"/><polygon class="cls-3" points="91.53 137.85 93.08 138.74 94.85 137.73 93.29 136.83 91.53 137.85"/><polygon class="cls-3" points="92.64 139 91.09 138.09 89.33 139.11 90.88 140.01 92.64 139"/><polygon class="cls-3" points="87.13 140.38 88.67 141.28 90.44 140.26 88.89 139.36 87.13 140.38"/><polygon class="cls-3" points="84.92 141.65 86.47 142.54 88.24 141.53 86.69 140.63 84.92 141.65"/><polygon class="cls-3" points="82.72 142.91 84.27 143.81 86.04 142.8 84.49 141.9 82.72 142.91"/><polygon class="cls-3" points="80.52 144.18 82.07 145.08 83.84 144.06 82.29 143.16 80.52 144.18"/><polygon class="cls-3" points="78.32 145.45 79.87 146.35 81.64 145.33 80.09 144.43 78.32 145.45"/><polygon class="cls-3" points="76.12 146.72 77.67 147.61 79.44 146.6 77.89 145.7 76.12 146.72"/><polygon class="cls-3" points="73.92 147.98 75.47 148.88 77.24 147.87 75.68 146.96 73.92 147.98"/><polygon class="cls-3" points="71.72 149.25 73.27 150.15 75.04 149.13 73.48 148.23 71.72 149.25"/><polygon class="cls-3" points="72.83 150.4 71.28 149.5 69.52 150.52 71.06 151.41 72.83 150.4"/><polygon class="cls-3" points="69.08 150.76 67.32 151.78 68.86 152.68 70.63 151.67 69.08 150.76"/><polygon class="cls-3" points="97.29 138.64 99.06 137.63 97.5 136.72 95.74 137.74 97.29 138.64"/><polygon class="cls-3" points="96.86 138.89 95.3 137.99 93.54 139.01 95.09 139.91 96.86 138.89"/><polygon class="cls-3" points="94.65 140.16 93.1 139.26 91.34 140.28 92.89 141.18 94.65 140.16"/><polygon class="cls-3" points="92.45 141.43 90.9 140.53 89.14 141.54 90.68 142.44 92.45 141.43"/><polygon class="cls-3" points="90.25 142.69 88.7 141.79 86.94 142.81 88.48 143.71 90.25 142.69"/><polygon class="cls-3" points="88.05 143.96 86.5 143.06 84.73 144.08 86.28 144.98 88.05 143.96"/><polygon class="cls-3" points="85.85 145.23 84.3 144.33 82.53 145.34 84.08 146.24 85.85 145.23"/><polygon class="cls-3" points="83.65 146.5 82.1 145.59 80.33 146.61 81.88 147.51 83.65 146.5"/><polygon class="cls-3" points="81.45 147.76 79.89 146.86 78.13 147.88 79.68 148.78 81.45 147.76"/><polygon class="cls-3" points="79.25 149.03 77.69 148.13 75.93 149.15 77.48 150.04 79.25 149.03"/><polygon class="cls-3" points="77.05 150.3 75.49 149.4 73.73 150.41 75.28 151.31 77.05 150.3"/><polygon class="cls-3" points="74.84 151.56 73.29 150.66 71.53 151.68 73.07 152.58 74.84 151.56"/><polygon class="cls-3" points="71.09 151.93 69.33 152.95 70.87 153.84 72.64 152.83 71.09 151.93"/><polygon class="cls-3" points="99.3 139.8 101.07 138.79 99.51 137.89 97.75 138.91 99.3 139.8"/><polygon class="cls-3" points="98.86 140.06 97.31 139.16 95.55 140.17 97.09 141.07 98.86 140.06"/><polygon class="cls-3" points="96.66 141.32 95.11 140.42 93.35 141.44 94.89 142.34 96.66 141.32"/><polygon class="cls-3" points="94.46 142.59 92.91 141.69 91.14 142.71 92.69 143.6 94.46 142.59"/><polygon class="cls-3" points="92.26 143.86 90.71 142.96 88.94 143.97 90.49 144.87 92.26 143.86"/><polygon class="cls-3" points="90.06 145.13 88.51 144.22 86.74 145.24 88.29 146.14 90.06 145.13"/><polygon class="cls-3" points="87.86 146.39 86.31 145.49 84.54 146.51 86.09 147.41 87.86 146.39"/><polygon class="cls-3" points="85.66 147.66 84.11 146.76 82.34 147.78 83.89 148.67 85.66 147.66"/><polygon class="cls-3" points="83.46 148.93 81.9 148.03 80.14 149.04 81.69 149.94 83.46 148.93"/><polygon class="cls-3" points="81.25 150.19 79.7 149.29 77.94 150.31 79.49 151.21 81.25 150.19"/><polygon class="cls-3" points="79.05 151.46 77.5 150.56 75.74 151.58 77.28 152.47 79.05 151.46"/><polygon class="cls-3" points="76.85 152.73 75.3 151.83 73.53 152.84 75.08 153.74 76.85 152.73"/><polygon class="cls-3" points="73.1 153.09 71.33 154.11 72.88 155.01 74.65 153.99 73.1 153.09"/><polygon class="cls-3" points="101.52 139.05 99.76 140.07 101.31 140.97 103.08 139.95 101.52 139.05"/><polygon class="cls-3" points="97.56 141.34 99.1 142.24 100.87 141.22 99.32 140.32 97.56 141.34"/><polygon class="cls-3" points="95.36 142.6 96.9 143.5 98.67 142.49 97.12 141.59 95.36 142.6"/><polygon class="cls-3" points="93.15 143.87 94.7 144.77 96.47 143.75 94.92 142.85 93.15 143.87"/><polygon class="cls-3" points="90.95 145.14 92.5 146.04 94.27 145.02 92.72 144.12 90.95 145.14"/><polygon class="cls-3" points="88.75 146.41 90.3 147.3 92.07 146.29 90.52 145.39 88.75 146.41"/><polygon class="cls-3" points="88.31 146.66 86.11 147.92 86.11 147.92 85.68 148.17 83.91 149.19 83.91 149.19 83.02 149.71 81.71 150.46 81.71 150.46 80.32 151.26 77.75 152.74 79.29 153.64 81.99 152.09 83.26 151.36 83.26 151.35 84.6 150.58 85.47 150.09 85.46 150.09 87.2 149.09 87.67 148.82 87.67 148.82 89.87 147.56 88.31 146.66"/><polygon class="cls-3" points="75.55 154.01 77.09 154.91 78.86 153.89 77.31 152.99 75.55 154.01"/><polygon class="cls-3" points="73.34 155.28 74.89 156.17 76.66 155.16 75.11 154.26 73.34 155.28"/><path class="cls-3" d="M80.77,137.11l-5.54-3.19a.47.47,0,0,0-.47,0l-7.68,4.43a.21.21,0,0,0,0,.36l5.46,3.15a.56.56,0,0,0,.56,0l7.67-4.43A.19.19,0,0,0,80.77,137.11Z"/><path class="cls-7" d="M79.59,128.49s1.17,1.84,1.64,2.41,2.07,2.93,3.1,3.52,0-1.42-.1-2,.55-1.24,1.59-.64,2,2.15,3.11,3,2.24-3.27.91-5.11a9.21,9.21,0,0,0-4.76-3.4c-2-.76-3.67-.41-4.5-.85Z"/><path class="cls-5" d="M65.25,111.16c-.88-6.45-1.44-10.91-1.44-10.91l8.06,15.45,11.48,9.91-4.1,4.53-12.85-9.46-.87-1.35A60.2,60.2,0,0,0,65.25,111.16Z"/><path class="cls-7" d="M60.94,135.21s1.88.44,2.48.68,3,.89,3.76,1.65-1.27.51-1.85.62.62.85,1.36,1.61a4.37,4.37,0,0,1,1.38,3c.15,1.21-4,3.6-4.78,1.76a4.66,4.66,0,0,0-2.36-2.93,17.3,17.3,0,0,1-3.39-3.41Z"/><path class="cls-5" d="M43.15,102.27s-4,.91-4.34,7.19l3.25,13.05c.29,2.06.85,3.7,1.94,4.6l13.39,12.31,4.72-4.14L49.19,122.63,46.3,108.93S46.63,103.57,43.15,102.27Z"/><path class="cls-4" d="M74.47,130.71l31.35-18.09a.59.59,0,0,1,.62,0h0l.8.45-.63.86-.24.27v25a1,1,0,0,1-.51.89L76.08,157.31l0,.26-.95,1.33-.9-.52h0a.47.47,0,0,1-.22-.4V131.62A1.06,1.06,0,0,1,74.47,130.71Z"/><path class="cls-3" d="M75.36,131.22l31.42-18.13a.46.46,0,0,1,.69.4v26.38a1,1,0,0,1-.51.89L75.54,158.9a.47.47,0,0,1-.71-.41V132.13A1.06,1.06,0,0,1,75.36,131.22Z"/><polygon class="cls-21" points="33.6 155.72 52.75 166.56 64.95 159.5 45.8 148.66 33.6 155.72"/><polygon class="cls-22" points="33.6 160.68 52.75 171.53 64.95 164.47 45.8 153.63 33.6 160.68"/><polygon class="cls-4" points="121.74 126.42 121.73 125.16 121.73 126.33 121.74 127.59 121.74 126.42"/><polygon class="cls-4" points="133.36 127.94 131.82 128.84 131.82 130.01 133.35 129.11 133.36 127.94"/><polygon class="cls-4" points="115.45 128.84 113.91 127.94 113.9 129.11 115.45 130.01 115.45 128.84"/><path class="cls-4" d="M118.74,132.89s0-.08,0-.13,0-.1,0-.15l.05-.12.07-.15.07-.11.12-.17.08-.1.21-.23.08-.08.15-.13.14-.11.18-.12.19-.12a5.11,5.11,0,0,1,.47-.24l.14-.06.39-.15.14,0,.25-.07.19-.05.27-.06.19,0,.56-.08h.17l.33,0h1l.23,0,.25,0,.22,0,.26,0,.2,0,.31.08.17,0,.53.18.25.11.13.06.36.19a2.47,2.47,0,0,1,1.46,2V132a2.47,2.47,0,0,0-1.46-2l-.36-.19-.13-.06-.22-.1h0l-.53-.18h0l-.13,0-.31-.08-.08,0-.12,0-.26,0-.1,0h-.12l-.25,0h-1.19l-.33,0h-.18l-.56.08h0l-.16,0-.27.06-.19.05-.26.07-.05,0-.09,0-.39.15-.14.06a5.11,5.11,0,0,0-.47.24l-.06,0-.13.08-.18.12-.14.11-.15.13,0,0-.05.06-.21.23,0,0,0,.05-.12.17,0,.07,0,0-.07.15,0,.09v0s0,.1,0,.15,0,.07,0,.1v0c0,.05,0,.1,0,.16s0,.07,0,.1v1.21s0-.1,0-.14S118.73,132.94,118.74,132.89Z"/><path class="cls-4" d="M133.35,133.12l-.08.21-.06.14-.06.13-.07.14-.07.13-.1.16-.08.12-.12.17-.08.11-.26.3,0,0-.26.25-.22.2v1.17l.18-.16,0,0,.25-.25,0,0,.26-.3,0,0,.06-.08.12-.16.08-.12.1-.16,0-.05,0-.08.07-.14.06-.13.06-.14,0-.06.05-.15h2.18v-1.17Z"/><path class="cls-4" d="M115.49,136.4v-1.17a4.87,4.87,0,0,1-1.52-2.1h-2.18v1.17H114A4.86,4.86,0,0,0,115.49,136.4Z"/><path class="cls-4" d="M129.2,136.77c-.26.1-.53.2-.81.28l-.46.13-.43.12-.48.1-.45.09c-.33.06-.66.11-1,.15v1.17c.34,0,.67-.09,1-.15h0l.4-.09.47-.1.44-.12.46-.13.05,0,.75-.27,1.55.89,2.66-1.54v-1.17l-2.66,1.54Z"/><path class="cls-4" d="M121.8,137.64l-.7-.1-.5-.09-.43-.09-.58-.14-.45-.12-.2-.06c-.26-.08-.52-.17-.76-.27h0l-1.54.9-2.67-1.54v1.17l2.67,1.54,1.54-.9c.25.1.51.18.77.27l.2.06.2.06.25.06.59.14.19,0,.24,0,.5.09.23,0,.47.06h0v1.26h3.77v-1.17h-3.77Z"/><path class="cls-2" d="M130.75,137.67l-1.55-.89a14.34,14.34,0,0,1-3.63.87v1.26h-3.77v-1.26a14.45,14.45,0,0,1-3.64-.87l-1.54.9-2.67-1.54,1.54-.9a4.87,4.87,0,0,1-1.52-2.1h-2.18v-2.18H114a4.82,4.82,0,0,1,1.49-2.1l-1.55-.89,2.66-1.54,1.55.89a14.42,14.42,0,0,1,3.63-.87v-1.26h3.77v1.26a14.53,14.53,0,0,1,3.64.87l1.54-.89,2.67,1.54-1.54.89a4.89,4.89,0,0,1,1.52,2.1h2.18v2.18h-2.18a4.79,4.79,0,0,1-1.49,2.1l1.55.89Zm-10.58-3.61a7.7,7.7,0,0,0,7,0c1.92-1.12,1.92-2.93,0-4a7.7,7.7,0,0,0-7,0c-1.92,1.12-1.91,2.93,0,4"/><polygon class="cls-4" points="126.38 139.46 126.37 138.43 126.37 139.39 126.37 140.42 126.38 139.46"/><polygon class="cls-4" points="135.87 140.71 134.61 141.44 134.61 142.39 135.87 141.66 135.87 140.71"/><polygon class="cls-4" points="121.24 141.44 119.97 140.71 119.97 141.66 121.24 142.39 121.24 141.44"/><path class="cls-4" d="M123.92,144.75l0-.1,0-.12,0-.1.06-.13.05-.09.09-.14.07-.08.17-.18.07-.07.12-.1.11-.09.15-.1.15-.1.38-.19.11,0,.32-.12.12,0,.21-.06.16,0,.22,0,.15,0,.46-.06h.14l.27,0h.79l.19,0,.2,0,.18,0,.21,0,.17,0,.25.06.14,0,.43.15.2.09.1,0,.3.15A2,2,0,0,1,132,145v-1a2,2,0,0,0-1.19-1.66l-.3-.15-.1,0-.18-.08h0l-.43-.15h0l-.1,0-.25-.06-.07,0-.1,0-.21,0h-.18l-.2,0h-1l-.27,0h-.14l-.46.06h0l-.13,0-.22,0-.16,0L126,142h0l-.07,0-.32.12-.12,0-.38.19,0,0-.1.07-.15.1-.11.09-.12.1,0,0,0,0-.17.18,0,0,0,0-.09.14,0,.06v0l-.06.13,0,.07v0l0,.12,0,.08v0s0,.08,0,.13,0,.06,0,.08v1s0-.08,0-.12S123.92,144.79,123.92,144.75Z"/><path class="cls-4" d="M135.86,144.94l-.06.17,0,.12-.05.11-.06.12-.06.11-.08.13-.06.1-.1.14-.07.09-.21.25,0,0-.21.21-.18.16v1l.15-.13,0,0,.21-.21,0,0,.21-.25,0,0,.05-.07.1-.13.06-.1.08-.13,0,0,0-.06.06-.11.05-.11,0-.12,0-.05,0-.12h1.78v-1Z"/><path class="cls-4" d="M121.27,147.61v-1a4,4,0,0,1-1.24-1.72h-1.78v1H120A4,4,0,0,0,121.27,147.61Z"/><path class="cls-4" d="M132.47,147.92l-.66.23-.38.11-.35.1-.39.08-.36.07-.82.12v1l.82-.12h0l.33-.07.39-.08.36-.1.37-.11h0l.61-.22,1.27.73,2.17-1.26v-1l-2.17,1.26Z"/><path class="cls-4" d="M126.43,148.63l-.57-.08-.41-.07-.35-.07-.48-.12-.37-.1-.16-.05-.62-.22h0l-1.26.73L120,147.39v1l2.18,1.26,1.26-.73.63.22.16.05.16.05.21.05.48.12.16,0,.2,0,.41.07.19,0,.39,0h0v1h3.08v-1h-3.08Z"/><path class="cls-2" d="M133.74,148.65l-1.27-.73a11.71,11.71,0,0,1-3,.71v1h-3.08v-1a11.8,11.8,0,0,1-3-.71l-1.26.73L120,147.39l1.26-.73a4,4,0,0,1-1.24-1.72h-1.78v-1.78H120a3.94,3.94,0,0,1,1.22-1.72l-1.27-.73,2.17-1.26,1.27.73a11.78,11.78,0,0,1,3-.71v-1h3.08v1a11.87,11.87,0,0,1,3,.71l1.26-.73,2.18,1.26-1.26.73a4,4,0,0,1,1.24,1.72h1.78v1.78h-1.78a3.91,3.91,0,0,1-1.22,1.72l1.27.73Zm-8.64-2.95a6.29,6.29,0,0,0,5.71,0c1.57-.91,1.56-2.39,0-3.31a6.29,6.29,0,0,0-5.71,0c-1.57.91-1.56,2.39,0,3.31"/><path class="cls-7" d="M30.63,142.89s-1.35-1.33-1.73-1.84-2.08-2.3-2.31-3.3,1.33.22,1.87.43,1.32-.27,1.09-1.29-1.51-2.86-2-4,4.09-1,5.39.44A7.63,7.63,0,0,1,35,138.29c.09,1.86-.72,3.37-.57,4.18Z"/><path class="cls-2" d="M35.14,140.88l-6.13.91.86,10.12,9.1,8.21A72.47,72.47,0,0,0,35.14,140.88Z"/><path class="cls-17" d="M14.17,231.89s-.54,2.4,2.73,2.83,4.7.4,5,2.58-.64,3.12-4.26,3.34a43,43,0,0,1-11.4-1.36c-.5-.14-.91-.41-.94-.92a17.66,17.66,0,0,1,1.22-5.95C7.68,229.58,14.17,231.89,14.17,231.89Z"/><path class="cls-18" d="M26.88,234.75s-.26.76,3,.94,6.81.18,7.26,2.34-2.11,3.87-5.71,4.36c-3.1.43-9.3.72-11.77.82a1,1,0,0,1-1-.85,25,25,0,0,1-.18-5C18.73,234.35,26.88,234.75,26.88,234.75Z"/><path class="cls-23" d="M9.67,179.87s-.94,26.52-1.18,29.75-2.7,23.33-2.7,23.33,5.54,2.79,9.84.88l4.79-51Z"/><path class="cls-24" d="M17.43,181.54l1.3,26.08c-.24,7.77-.55,30-.55,30a14.31,14.31,0,0,0,10.35-2.73c-.36-3.46,0-24.48,0-24.48,1.3-10.17.65-26.5.78-29.51l0-.48Z"/><path class="cls-2" d="M5.84,142.41S2.62,154.85,3.5,161.54a7.74,7.74,0,0,0,6.69,3.09Z"/><ellipse class="cls-8" cx="20.78" cy="130.7" rx="8.81" ry="7.15" transform="translate(-109.98 151.14) rotate(-89.85)"/><path class="cls-18" d="M32.76,144.22s-6-2.28-6.8-2.82A3.09,3.09,0,0,1,24.86,140a16,16,0,0,0-9.21-2.48c-7.54,2.07-9.81,4.87-9.81,4.87.78,6.43,2.43,31.79,2.8,37.42a1.88,1.88,0,0,0,1.08,1.6c9.28,4.26,16.16,2.21,19.35.68a3.11,3.11,0,0,0,1.7-3.17C29.42,166.78,32.76,144.22,32.76,144.22Z"/><path class="cls-6" d="M23.37,121.5S29,122.56,29,127.25L23.8,129s.81,4-2.11,5c0,0-.85,3.59-6.14,3.25,0,0-8-10.38,1.77-15.3A12.88,12.88,0,0,1,23.37,121.5Z"/><path class="cls-2" d="M33,144.22c-5.44,0-3.28,11.71-3.28,11.71l1.87,8.16A2.15,2.15,0,0,0,34,165.67,5.65,5.65,0,0,0,39,161C38.91,150.34,33,144.22,33,144.22Z"/><path class="cls-2" d="M24.86,140a16,16,0,0,0-9.21-2.48c-1.18.32-2.22.67-3.15,1,4.56,0,10.6,1.66,12.9,2.34A3.15,3.15,0,0,1,24.86,140Z"/><path class="cls-2" d="M245.36,70,124.61.3a2.28,2.28,0,0,0-2.42.1h0L119.5,1.9,122,5.25l.92,1.05V82.61a4,4,0,0,0,2,3.46l114.67,66.16.19,1,3.69,5.17,3.06-1.78,0,0,0,0h0a1.81,1.81,0,0,0,.87-1.56V73.52A4.12,4.12,0,0,0,245.36,70Z"/><path class="cls-25" d="M242.33,71.72,121.29,1.9a1.79,1.79,0,0,0-2.68,1.55V85.09a4,4,0,0,0,2,3.46l121,69.84a1.84,1.84,0,0,0,2.75-1.59V75.28A4.12,4.12,0,0,0,242.33,71.72Z"/><path class="cls-3" d="M118.61,3.45V85.09a4,4,0,0,0,2,3.46l121,69.84a1.83,1.83,0,0,0,2.75-1.59V75.28a4.12,4.12,0,0,0-2.06-3.57L121.29,1.9a1.77,1.77,0,0,0-.89-.24h0A1.79,1.79,0,0,0,118.61,3.45Zm1.74,0V3.37l.07,0,121,69.81a2.38,2.38,0,0,1,1.19,2.06v81.39c0,.09-.09.09-.09.09L121.48,86.91A2.26,2.26,0,0,1,120.35,85Z"/><polygon class="cls-26" points="120.4 1.66 120.4 1.66 120.4 1.66 120.4 1.66"/><path class="cls-3" d="M243.47,158.39l0,0h0Z"/><path class="cls-4" d="M244.39,156.79V75.28a4.07,4.07,0,0,0-.28-1.4l3.06-1.71a4.07,4.07,0,0,1,.26,1.35V155a1.81,1.81,0,0,1-.87,1.55h0l0,0,0,0-3,1.75A1.82,1.82,0,0,0,244.39,156.79Z"/><polygon class="cls-27" points="131.5 14.17 131.5 15.84 138.51 19.89 138.51 18.22 131.5 14.17"/><polygon class="cls-28" points="131.5 17.22 131.5 18.89 138.51 22.93 138.51 21.27 131.5 17.22"/><polygon class="cls-28" points="131.5 20.27 131.5 21.94 138.51 25.98 138.51 24.31 131.5 20.27"/><polygon class="cls-28" points="184.42 55.51 184.42 53.84 141.15 28.88 141.15 30.55 184.42 55.51"/><polygon class="cls-28" points="131.5 23.32 131.5 24.99 138.51 29.03 138.51 27.36 131.5 23.32"/><polygon class="cls-28" points="131.5 26.37 131.5 28.04 138.51 32.08 138.51 30.41 131.5 26.37"/><polygon class="cls-29" points="184.42 58.56 184.42 56.89 141.15 31.93 141.15 33.6 184.42 58.56"/><polygon class="cls-28" points="131.5 35.52 131.5 37.18 138.51 41.23 138.51 39.56 131.5 35.52"/><polygon class="cls-27" points="131.5 38.56 131.5 40.23 138.51 44.28 138.51 42.61 131.5 38.56"/><polygon class="cls-28" points="131.5 50.76 131.5 52.43 138.51 56.47 138.51 54.8 131.5 50.76"/><polygon class="cls-28" points="131.5 53.81 131.5 55.48 138.51 59.52 138.51 57.85 131.5 53.81"/><polygon class="cls-29" points="168.44 75.12 141.15 59.37 141.15 61.04 168.44 76.78 168.44 75.12"/><polygon class="cls-28" points="169.88 75.95 169.88 77.61 184.42 86 184.42 84.33 169.88 75.95"/><polygon class="cls-28" points="154.86 64.23 141.15 56.32 141.15 57.99 154.86 65.9 154.86 64.23"/><polygon class="cls-28" points="156.3 65.06 156.3 66.73 184.42 82.95 184.42 81.28 156.3 65.06"/><polygon class="cls-28" points="180.72 70 180.72 71.67 184.42 73.8 184.42 72.13 180.72 70"/><polygon class="cls-21" points="160.59 55.34 141.15 44.13 141.15 45.79 160.59 57.01 160.59 55.34"/><polygon class="cls-28" points="152.62 26.35 141.15 19.73 141.15 21.4 152.62 28.02 152.62 26.35"/><polygon class="cls-28" points="171.43 37.2 154.06 27.18 154.06 28.85 171.43 38.87 171.43 37.2"/><polygon class="cls-28" points="161.31 34.41 149.08 27.36 149.08 29.03 161.31 36.08 161.31 34.41"/><polygon class="cls-21" points="174.14 41.81 162.75 35.24 162.75 36.91 174.14 43.48 174.14 41.81"/><polygon class="cls-28" points="175.58 42.65 175.58 44.31 184.42 49.41 184.42 47.74 175.58 42.65"/><polygon class="cls-21" points="143.41 27.14 143.41 28.8 152.62 34.12 152.62 32.45 143.41 27.14"/><polygon class="cls-28" points="180.81 48.71 154.06 33.28 154.06 34.95 180.81 50.38 180.81 48.71"/><polygon class="cls-28" points="165.5 49.02 148.01 38.94 148.01 40.61 165.5 50.69 165.5 49.02"/><polygon class="cls-28" points="180.81 57.86 166.94 49.85 166.94 51.52 180.81 59.53 180.81 57.86"/><polygon class="cls-28" points="179.28 66.12 162.03 56.17 162.03 57.84 179.28 67.79 179.28 66.12"/><polygon class="cls-29" points="169.88 63.75 169.88 65.42 179.28 70.84 179.28 69.17 169.88 63.75"/><polygon class="cls-28" points="144.53 49.13 141.15 47.17 141.15 48.84 144.53 50.8 144.53 49.13"/><polygon class="cls-28" points="150.87 52.78 150.87 54.45 168.44 64.59 168.44 62.92 150.87 52.78"/><polygon class="cls-28" points="149.43 51.95 145.97 49.96 145.97 51.63 149.43 53.62 149.43 51.95"/><polygon class="cls-28" points="165.19 64.09 145.97 53.01 145.97 54.67 165.19 65.76 165.19 64.09"/><polygon class="cls-27" points="131.5 62.79 131.5 64.46 138.51 68.5 138.51 66.83 131.5 62.79"/><polygon class="cls-28" points="131.5 65.84 131.5 67.51 138.51 71.55 138.51 69.88 131.5 65.84"/><polygon class="cls-28" points="131.5 68.89 131.5 70.56 138.51 74.6 138.51 72.93 131.5 68.89"/><polygon class="cls-28" points="184.42 104.13 184.42 102.46 141.15 77.5 141.15 79.17 184.42 104.13"/><polygon class="cls-28" points="131.5 71.94 131.5 73.61 138.51 77.65 138.51 75.98 131.5 71.94"/><polygon class="cls-28" points="131.5 74.99 131.5 76.66 138.51 80.7 138.51 79.03 131.5 74.99"/><polygon class="cls-29" points="184.42 107.17 184.42 105.51 141.15 80.55 141.15 82.22 184.42 107.17"/><polygon class="cls-28" points="131.5 84.13 131.5 85.8 138.51 89.85 138.51 88.18 131.5 84.13"/><polygon class="cls-27" points="131.5 87.18 131.5 88.85 138.51 92.89 138.51 91.23 131.5 87.18"/><polygon class="cls-21" points="160.59 103.96 141.15 92.74 141.15 94.41 160.59 105.63 160.59 103.96"/><polygon class="cls-28" points="152.62 74.97 141.15 68.35 141.15 70.02 152.62 76.64 152.62 74.97"/><polygon class="cls-28" points="171.43 85.82 154.06 75.8 154.06 77.47 171.43 87.49 171.43 85.82"/><polygon class="cls-28" points="161.31 83.03 149.08 75.97 149.08 77.64 161.31 84.7 161.31 83.03"/><polygon class="cls-21" points="174.14 90.43 162.75 83.86 162.75 85.53 174.14 92.1 174.14 90.43"/><polygon class="cls-28" points="175.58 91.26 175.58 92.93 184.42 98.03 184.42 96.36 175.58 91.26"/><polygon class="cls-21" points="143.41 75.75 143.41 77.42 152.62 82.74 152.62 81.07 143.41 75.75"/><polygon class="cls-28" points="180.81 97.33 154.06 81.9 154.06 83.57 180.81 99 180.81 97.33"/><polygon class="cls-28" points="165.5 97.64 148.01 87.56 148.01 89.23 165.5 99.31 165.5 97.64"/><polygon class="cls-28" points="180.81 106.48 166.94 98.47 166.94 100.14 180.81 108.14 180.81 106.48"/><polygon class="cls-28" points="179.28 114.74 162.03 104.79 162.03 106.46 179.28 116.41 179.28 114.74"/><polygon class="cls-29" points="216.95 63.4 216.95 64.06 219.73 65.67 219.73 65 216.95 63.4"/><polygon class="cls-29" points="216.95 64.61 216.95 65.27 219.73 66.88 219.73 66.22 216.95 64.61"/><polygon class="cls-29" points="216.95 65.82 216.95 66.48 219.73 68.09 219.73 67.43 216.95 65.82"/><polygon class="cls-29" points="237.96 79.81 237.96 79.15 220.78 69.24 220.78 69.9 237.96 79.81"/><polygon class="cls-29" points="216.95 67.03 216.95 67.69 219.73 69.3 219.73 68.64 216.95 67.03"/><polygon class="cls-29" points="216.95 68.24 216.95 68.9 219.73 70.51 219.73 69.85 216.95 68.24"/><polygon class="cls-29" points="237.96 81.03 237.96 80.36 220.78 70.45 220.78 71.11 237.96 81.03"/><polygon class="cls-29" points="216.95 71.87 216.95 72.54 219.73 74.14 219.73 73.48 216.95 71.87"/><polygon class="cls-29" points="216.95 73.08 216.95 73.75 219.73 75.35 219.73 74.69 216.95 73.08"/><polygon class="cls-29" points="216.95 77.93 216.95 78.59 219.73 80.2 219.73 79.53 216.95 77.93"/><polygon class="cls-29" points="216.95 79.14 216.95 79.8 219.73 81.41 219.73 80.75 216.95 79.14"/><polygon class="cls-29" points="231.62 87.6 220.78 81.35 220.78 82.01 231.62 88.26 231.62 87.6"/><polygon class="cls-29" points="232.19 87.93 232.19 88.59 237.96 91.92 237.96 91.26 232.19 87.93"/><polygon class="cls-29" points="226.22 83.28 220.78 80.14 220.78 80.8 226.22 83.94 226.22 83.28"/><polygon class="cls-29" points="226.79 83.61 226.79 84.27 237.96 90.71 237.96 90.05 226.79 83.61"/><polygon class="cls-29" points="236.49 85.57 236.49 86.23 237.96 87.08 237.96 86.42 236.49 85.57"/><polygon class="cls-29" points="228.5 79.75 220.78 75.29 220.78 75.96 228.5 80.41 228.5 79.75"/><polygon class="cls-29" points="225.33 68.24 220.78 65.61 220.78 66.27 225.33 68.9 225.33 68.24"/><polygon class="cls-29" points="232.8 72.55 225.91 68.56 225.91 69.23 232.8 73.21 232.8 72.55"/><polygon class="cls-29" points="228.78 71.44 223.93 68.63 223.93 69.3 228.78 72.1 228.78 71.44"/><polygon class="cls-29" points="233.88 74.38 229.35 71.77 229.35 72.43 233.88 75.04 233.88 74.38"/><polygon class="cls-29" points="234.45 74.7 234.45 75.37 237.96 77.39 237.96 76.73 234.45 74.7"/><polygon class="cls-29" points="221.67 68.55 221.67 69.21 225.33 71.32 225.33 70.66 221.67 68.55"/><polygon class="cls-29" points="236.53 77.11 225.91 70.99 225.91 71.65 236.53 77.78 236.53 77.11"/><polygon class="cls-29" points="230.45 77.24 223.5 73.23 223.5 73.9 230.45 77.9 230.45 77.24"/><polygon class="cls-29" points="236.53 80.75 231.02 77.57 231.02 78.23 236.53 81.41 236.53 80.75"/><polygon class="cls-29" points="235.92 84.03 229.07 80.08 229.07 80.74 235.92 84.69 235.92 84.03"/><polygon class="cls-29" points="232.19 83.09 232.19 83.75 235.92 85.9 235.92 85.24 232.19 83.09"/><polygon class="cls-29" points="222.12 77.28 220.78 76.5 220.78 77.17 222.12 77.94 222.12 77.28"/><polygon class="cls-29" points="224.64 78.73 224.64 79.39 231.62 83.42 231.62 82.76 224.64 78.73"/><polygon class="cls-29" points="224.06 78.4 222.69 77.61 222.69 78.27 224.06 79.06 224.06 78.4"/><polygon class="cls-29" points="230.32 83.22 222.69 78.82 222.69 79.48 230.32 83.89 230.32 83.22"/><polygon class="cls-28" points="216.95 83.89 216.95 84.55 219.73 86.16 219.73 85.49 216.95 83.89"/><polygon class="cls-28" points="216.95 85.1 216.95 85.76 219.73 87.36 219.73 86.7 216.95 85.1"/><polygon class="cls-28" points="216.95 86.31 216.95 86.97 219.73 88.58 219.73 87.91 216.95 86.31"/><polygon class="cls-28" points="237.96 100.3 237.96 99.64 220.78 89.73 220.78 90.39 237.96 100.3"/><polygon class="cls-28" points="216.95 87.52 216.95 88.18 219.73 89.79 219.73 89.12 216.95 87.52"/><polygon class="cls-28" points="216.95 88.73 216.95 89.39 219.73 91 219.73 90.33 216.95 88.73"/><polygon class="cls-28" points="237.96 101.51 237.96 100.85 220.78 90.94 220.78 91.6 237.96 101.51"/><polygon class="cls-28" points="216.95 92.36 216.95 93.02 219.73 94.63 219.73 93.97 216.95 92.36"/><polygon class="cls-28" points="216.95 93.57 216.95 94.23 219.73 95.84 219.73 95.18 216.95 93.57"/><polygon class="cls-28" points="216.95 98.42 216.95 99.08 219.73 100.68 219.73 100.02 216.95 98.42"/><polygon class="cls-28" points="216.95 99.63 216.95 100.29 219.73 101.89 219.73 101.23 216.95 99.63"/><polygon class="cls-28" points="231.62 108.09 220.78 101.83 220.78 102.5 231.62 108.75 231.62 108.09"/><polygon class="cls-28" points="232.19 108.42 232.19 109.08 237.96 112.41 237.96 111.75 232.19 108.42"/><polygon class="cls-28" points="226.22 103.77 220.78 100.62 220.78 101.29 226.22 104.43 226.22 103.77"/><polygon class="cls-28" points="226.79 104.09 226.79 104.76 237.96 111.2 237.96 110.53 226.79 104.09"/><polygon class="cls-28" points="236.49 106.06 236.49 106.72 237.96 107.57 237.96 106.9 236.49 106.06"/><polygon class="cls-28" points="228.5 100.23 220.78 95.78 220.78 96.44 228.5 100.9 228.5 100.23"/><polygon class="cls-28" points="225.33 88.72 220.78 86.09 220.78 86.76 225.33 89.39 225.33 88.72"/><polygon class="cls-28" points="232.8 93.03 225.91 89.05 225.91 89.72 232.8 93.69 232.8 93.03"/><polygon class="cls-28" points="228.78 91.92 223.93 89.12 223.93 89.78 228.78 92.59 228.78 91.92"/><polygon class="cls-28" points="233.88 94.86 229.35 92.25 229.35 92.92 233.88 95.53 233.88 94.86"/><polygon class="cls-28" points="234.45 95.19 234.45 95.86 237.96 97.88 237.96 97.22 234.45 95.19"/><polygon class="cls-28" points="221.67 89.03 221.67 89.7 225.33 91.81 225.33 91.14 221.67 89.03"/><polygon class="cls-28" points="236.53 97.6 225.91 91.47 225.91 92.14 236.53 98.27 236.53 97.6"/><polygon class="cls-28" points="230.45 97.73 223.5 93.72 223.5 94.38 230.45 98.39 230.45 97.73"/><polygon class="cls-28" points="236.53 101.23 231.02 98.06 231.02 98.72 236.53 101.9 236.53 101.23"/><polygon class="cls-28" points="235.92 104.52 229.07 100.56 229.07 101.23 235.92 105.18 235.92 104.52"/><polygon class="cls-28" points="232.19 103.57 232.19 104.24 235.92 106.39 235.92 105.73 232.19 103.57"/><polygon class="cls-28" points="222.12 97.77 220.78 96.99 220.78 97.65 222.12 98.43 222.12 97.77"/><polygon class="cls-28" points="224.64 99.22 224.64 99.88 231.62 103.91 231.62 103.24 224.64 99.22"/><polygon class="cls-28" points="224.06 98.89 222.69 98.1 222.69 98.76 224.06 99.55 224.06 98.89"/><polygon class="cls-28" points="230.32 103.71 222.69 99.31 222.69 99.97 230.32 104.37 230.32 103.71"/><polygon class="cls-27" points="216.95 104.37 216.95 105.04 219.73 106.64 219.73 105.98 216.95 104.37"/><polygon class="cls-27" points="216.95 105.58 216.95 106.25 219.73 107.85 219.73 107.19 216.95 105.58"/><polygon class="cls-27" points="216.95 106.8 216.95 107.46 219.73 109.06 219.73 108.4 216.95 106.8"/><polygon class="cls-27" points="237.96 120.79 237.96 120.13 220.78 110.21 220.78 110.88 237.96 120.79"/><polygon class="cls-27" points="216.95 108.01 216.95 108.67 219.73 110.27 219.73 109.61 216.95 108.01"/><polygon class="cls-27" points="216.95 109.22 216.95 109.88 219.73 111.48 219.73 110.82 216.95 109.22"/><polygon class="cls-27" points="237.96 122 237.96 121.34 220.78 111.42 220.78 112.09 237.96 122"/><polygon class="cls-27" points="216.95 112.85 216.95 113.51 219.73 115.12 219.73 114.45 216.95 112.85"/><polygon class="cls-27" points="216.95 114.06 216.95 114.72 219.73 116.33 219.73 115.67 216.95 114.06"/><polygon class="cls-27" points="216.95 118.9 216.95 119.57 219.73 121.17 219.73 120.51 216.95 118.9"/><polygon class="cls-27" points="216.95 120.11 216.95 120.78 219.73 122.38 219.73 121.72 216.95 120.11"/><polygon class="cls-27" points="231.62 128.57 220.78 122.32 220.78 122.98 231.62 129.24 231.62 128.57"/><polygon class="cls-27" points="232.19 128.91 232.19 129.57 237.96 132.9 237.96 132.23 232.19 128.91"/><polygon class="cls-27" points="226.22 124.25 220.78 121.11 220.78 121.77 226.22 124.92 226.22 124.25"/><polygon class="cls-27" points="226.79 124.58 226.79 125.25 237.96 131.69 237.96 131.02 226.79 124.58"/><polygon class="cls-27" points="236.49 126.54 236.49 127.21 237.96 128.05 237.96 127.39 236.49 126.54"/><polygon class="cls-27" points="228.5 120.72 220.78 116.27 220.78 116.93 228.5 121.39 228.5 120.72"/><polygon class="cls-27" points="225.33 109.21 220.78 106.58 220.78 107.25 225.33 109.87 225.33 109.21"/><polygon class="cls-27" points="232.8 113.52 225.91 109.54 225.91 110.2 232.8 114.18 232.8 113.52"/><polygon class="cls-27" points="228.78 112.41 223.93 109.61 223.93 110.27 228.78 113.07 228.78 112.41"/><polygon class="cls-27" points="233.88 115.35 229.35 112.74 229.35 113.4 233.88 116.01 233.88 115.35"/><polygon class="cls-27" points="234.45 115.68 234.45 116.34 237.96 118.37 237.96 117.7 234.45 115.68"/><polygon class="cls-27" points="221.67 109.52 221.67 110.18 225.33 112.3 225.33 111.63 221.67 109.52"/><polygon class="cls-27" points="236.53 118.09 225.91 111.96 225.91 112.62 236.53 118.75 236.53 118.09"/><polygon class="cls-27" points="230.45 118.21 223.5 114.21 223.5 114.87 230.45 118.88 230.45 118.21"/><polygon class="cls-27" points="236.53 121.72 231.02 118.54 231.02 119.21 236.53 122.38 236.53 121.72"/><polygon class="cls-27" points="235.92 125 229.07 121.05 229.07 121.71 235.92 125.67 235.92 125"/><polygon class="cls-27" points="232.19 124.06 232.19 124.72 235.92 126.88 235.92 126.21 232.19 124.06"/><polygon class="cls-27" points="222.12 118.25 220.78 117.48 220.78 118.14 222.12 118.92 222.12 118.25"/><polygon class="cls-27" points="224.64 119.71 224.64 120.37 231.62 124.39 231.62 123.73 224.64 119.71"/><polygon class="cls-27" points="224.06 119.38 222.69 118.58 222.69 119.25 224.06 120.04 224.06 119.38"/><polygon class="cls-27" points="230.32 124.2 222.69 119.79 222.69 120.46 230.32 124.86 230.32 124.2"/><polygon class="cls-28" points="216.95 124.86 216.95 125.52 219.73 127.13 219.73 126.47 216.95 124.86"/><polygon class="cls-28" points="216.95 126.07 216.95 126.73 219.73 128.34 219.73 127.68 216.95 126.07"/><polygon class="cls-28" points="216.95 127.28 216.95 127.94 219.73 129.55 219.73 128.89 216.95 127.28"/><polygon class="cls-28" points="237.96 141.28 237.96 140.61 220.78 130.7 220.78 131.36 237.96 141.28"/><polygon class="cls-28" points="216.95 128.49 216.95 129.16 219.73 130.76 219.73 130.1 216.95 128.49"/><polygon class="cls-28" points="216.95 129.7 216.95 130.37 219.73 131.97 219.73 131.31 216.95 129.7"/><polygon class="cls-28" points="237.96 142.49 237.96 141.82 220.78 131.91 220.78 132.57 237.96 142.49"/><polygon class="cls-28" points="216.95 133.34 216.95 134 219.73 135.6 219.73 134.94 216.95 133.34"/><polygon class="cls-28" points="216.95 134.55 216.95 135.21 219.73 136.82 219.73 136.15 216.95 134.55"/><polygon class="cls-28" points="236.49 147.03 236.49 147.69 237.96 148.54 237.96 147.88 236.49 147.03"/><polygon class="cls-28" points="228.5 141.21 220.78 136.76 220.78 137.42 228.5 141.87 228.5 141.21"/><polygon class="cls-28" points="225.33 129.7 220.78 127.07 220.78 127.73 225.33 130.36 225.33 129.7"/><polygon class="cls-28" points="232.8 134.01 225.91 130.03 225.91 130.69 232.8 134.67 232.8 134.01"/><polygon class="cls-28" points="228.78 132.9 223.93 130.1 223.93 130.76 228.78 133.56 228.78 132.9"/><polygon class="cls-28" points="233.88 135.84 229.35 133.23 229.35 133.89 233.88 136.5 233.88 135.84"/><polygon class="cls-28" points="234.45 136.17 234.45 136.83 237.96 138.85 237.96 138.19 234.45 136.17"/><polygon class="cls-28" points="221.67 130.01 221.67 130.67 225.33 132.78 225.33 132.12 221.67 130.01"/><polygon class="cls-28" points="236.53 138.58 225.91 132.45 225.91 133.11 236.53 139.24 236.53 138.58"/><polygon class="cls-28" points="230.45 138.7 223.5 134.7 223.5 135.36 230.45 139.36 230.45 138.7"/><polygon class="cls-28" points="236.53 142.21 231.02 139.03 231.02 139.69 236.53 142.87 236.53 142.21"/><polygon class="cls-28" points="235.92 145.49 229.07 141.54 229.07 142.2 235.92 146.15 235.92 145.49"/><polygon class="cls-28" points="232.19 144.55 232.19 145.21 235.92 147.36 235.92 146.7 232.19 144.55"/><polygon class="cls-28" points="222.12 138.74 220.78 137.97 220.78 138.63 222.12 139.4 222.12 138.74"/><polygon class="cls-28" points="224.64 140.19 224.64 140.86 231.62 144.88 231.62 144.22 224.64 140.19"/><polygon class="cls-28" points="224.06 139.86 222.69 139.07 222.69 139.73 224.06 140.53 224.06 139.86"/><polygon class="cls-28" points="230.32 144.69 222.69 140.28 222.69 140.94 230.32 145.35 230.32 144.69"/><path class="cls-29" d="M127,11.58l-2.31-1.33a.17.17,0,0,0-.25.15v2.77a.38.38,0,0,0,.19.33l2.31,1.34a.17.17,0,0,0,.26-.15V11.92A.39.39,0,0,0,127,11.58Z"/><path class="cls-29" d="M127,15.72l-2.31-1.33a.17.17,0,0,0-.25.15V17.3a.38.38,0,0,0,.19.33L126.95,19a.17.17,0,0,0,.26-.15V16.05A.39.39,0,0,0,127,15.72Z"/><path class="cls-29" d="M127,19.85l-2.31-1.33a.17.17,0,0,0-.25.15v2.77a.38.38,0,0,0,.19.33l2.31,1.34a.17.17,0,0,0,.26-.15V20.19A.39.39,0,0,0,127,19.85Z"/><path class="cls-29" d="M127,24l-2.31-1.33a.17.17,0,0,0-.25.15v2.77a.38.38,0,0,0,.19.33l2.31,1.34a.17.17,0,0,0,.26-.15V24.33A.39.39,0,0,0,127,24Z"/><path class="cls-29" d="M127,28.13l-2.31-1.33a.17.17,0,0,0-.25.15v2.77a.38.38,0,0,0,.19.33l2.31,1.34a.17.17,0,0,0,.26-.15V28.46A.39.39,0,0,0,127,28.13Z"/><path class="cls-29" d="M127,32.26l-2.31-1.33a.17.17,0,0,0-.25.15v2.77a.38.38,0,0,0,.19.33l2.31,1.34a.17.17,0,0,0,.26-.15V32.6A.39.39,0,0,0,127,32.26Z"/><path class="cls-29" d="M127,36.4l-2.31-1.33a.17.17,0,0,0-.25.15V38a.38.38,0,0,0,.19.33l2.31,1.34a.17.17,0,0,0,.26-.15V36.74A.39.39,0,0,0,127,36.4Z"/><path class="cls-29" d="M127,40.54,124.7,39.2a.17.17,0,0,0-.25.15v2.77a.38.38,0,0,0,.19.33l2.31,1.34a.17.17,0,0,0,.26-.15V40.87A.39.39,0,0,0,127,40.54Z"/><path class="cls-29" d="M127,44.67l-2.31-1.33a.17.17,0,0,0-.25.15v2.77a.38.38,0,0,0,.19.33l2.31,1.34a.17.17,0,0,0,.26-.15V45A.39.39,0,0,0,127,44.67Z"/><path class="cls-29" d="M127,48.81l-2.31-1.33a.17.17,0,0,0-.25.15v2.77a.38.38,0,0,0,.19.33l2.31,1.34a.17.17,0,0,0,.26-.15V49.15A.39.39,0,0,0,127,48.81Z"/><path class="cls-29" d="M127,52.95l-2.31-1.33a.17.17,0,0,0-.25.15v2.77a.38.38,0,0,0,.19.33l2.31,1.34a.17.17,0,0,0,.26-.15V53.28A.39.39,0,0,0,127,52.95Z"/><path class="cls-29" d="M127,57.08l-2.31-1.33a.17.17,0,0,0-.25.15v2.77a.38.38,0,0,0,.19.33l2.31,1.34a.17.17,0,0,0,.26-.15V57.42A.39.39,0,0,0,127,57.08Z"/><path class="cls-28" d="M193.37,51.15a1.19,1.19,0,0,0-.2.81v1.82q0,.51-.33.54a1.7,1.7,0,0,1-.92-.31v1.24a3.13,3.13,0,0,1,.92.76,1.52,1.52,0,0,1,.32,1v1.76a2.51,2.51,0,0,0,.2,1,2.64,2.64,0,0,0,.63.85,6.67,6.67,0,0,0,1.2.85V60.32a2,2,0,0,1-.67-.6,1.34,1.34,0,0,1-.17-.7V57.28a2.32,2.32,0,0,0-1.11-1.84v-.07c.74.3,1.11.09,1.12-.62V53.07c0-.27.06-.44.18-.49s.34,0,.67.18V51.58A4.74,4.74,0,0,0,194,51,.64.64,0,0,0,193.37,51.15Z"/><path class="cls-28" d="M200.32,58.65a1.45,1.45,0,0,1-.31-.91V55.92a2.39,2.39,0,0,0-.46-1.48A5.2,5.2,0,0,0,198,53.17v1.17a2,2,0,0,1,.67.59,1.31,1.31,0,0,1,.17.7v1.68a2.42,2.42,0,0,0,1.12,1.91v.07a1.09,1.09,0,0,0-.84-.08c-.19.09-.29.31-.29.64V61.6c0,.27-.06.44-.18.5s-.35,0-.67-.18v1.17a2.87,2.87,0,0,0,1.59.56c.31-.06.46-.37.46-1V60.94c0-.37.11-.57.32-.6a1.63,1.63,0,0,1,.92.31V59.41A3.13,3.13,0,0,1,200.32,58.65Z"/><path class="cls-28" d="M204.79,57.57a1.19,1.19,0,0,0-.2.81v1.82q0,.51-.33.54a1.7,1.7,0,0,1-.92-.31v1.24a3.12,3.12,0,0,1,.92.76,1.52,1.52,0,0,1,.32,1v1.76a2.5,2.5,0,0,0,.2,1,2.64,2.64,0,0,0,.63.85,6.68,6.68,0,0,0,1.2.85V66.74a2,2,0,0,1-.67-.6,1.34,1.34,0,0,1-.17-.7V63.69a2.32,2.32,0,0,0-1.11-1.84v-.07c.74.3,1.11.09,1.12-.62V59.48c0-.27.06-.44.18-.49s.34,0,.67.18V58a4.74,4.74,0,0,0-1.2-.54A.64.64,0,0,0,204.79,57.57Z"/><path class="cls-28" d="M211.74,65.07a1.45,1.45,0,0,1-.31-.91V62.33a2.39,2.39,0,0,0-.46-1.48,5.2,5.2,0,0,0-1.59-1.27v1.17a2,2,0,0,1,.67.59,1.31,1.31,0,0,1,.17.7v1.68a2.42,2.42,0,0,0,1.12,1.91v.07a1.09,1.09,0,0,0-.84-.08c-.19.09-.29.31-.29.64V68c0,.27-.06.44-.18.5s-.35,0-.67-.18V69.5a2.87,2.87,0,0,0,1.59.56c.31-.06.46-.37.46-1V67.36c0-.37.11-.56.32-.6a1.63,1.63,0,0,1,.92.31V65.83A3.13,3.13,0,0,1,211.74,65.07Z"/><path class="cls-28" d="M202.36,117.4l-1.11-.64a3.42,3.42,0,0,1-.77,1.68l.78,1.35-1.36.77-.78-1.35a3.5,3.5,0,0,1-1.84-.19v1.27l-1.91-1.1v-1.27a10.38,10.38,0,0,1-1.84-1.94l-.79.45-1.35-2.33.79-.45a10.3,10.3,0,0,1-.76-2.56l-1.11-.64v-2.2l1.11.64a3.44,3.44,0,0,1,.77-1.68l-.78-1.35,1.36-.77.78,1.35a3.5,3.5,0,0,1,1.84.19v-1.27l1.91,1.1v1.27a10.38,10.38,0,0,1,1.84,1.94l.79-.45,1.35,2.33-.79.45a10.24,10.24,0,0,1,.76,2.56l1.11.64Zm-6-1.69c1.38.8,2.51.16,2.51-1.43a5.5,5.5,0,0,0-2.5-4.32c-1.38-.8-2.51-.16-2.51,1.43a5.5,5.5,0,0,0,2.5,4.32"/><path class="cls-28" d="M210.34,128l-.9-.52a2.8,2.8,0,0,1-.63,1.37l.64,1.1-1.11.63-.64-1.1a2.86,2.86,0,0,1-1.51-.15v1l-1.56-.9v-1a8.48,8.48,0,0,1-1.5-1.59l-.64.37-1.1-1.91L202,125a8.42,8.42,0,0,1-.62-2.09l-.9-.52v-1.79l.9.52a2.81,2.81,0,0,1,.63-1.37l-.64-1.1,1.11-.63.64,1.1a2.86,2.86,0,0,1,1.51.15v-1l1.56.9v1a8.48,8.48,0,0,1,1.5,1.59l.64-.37,1.1,1.91-.64.37a8.37,8.37,0,0,1,.62,2.09l.9.52Zm-4.92-1.38c1.13.65,2,.13,2.05-1.17a4.5,4.5,0,0,0-2-3.53c-1.13-.65-2.05-.13-2.05,1.17a4.5,4.5,0,0,0,2,3.53"/><polygon class="cls-28" points="204.28 70.72 191.92 63.56 191.92 64.19 204.28 71.35 204.28 70.72"/><polygon class="cls-28" points="210.88 75.77 191.92 64.8 191.92 65.43 210.88 76.4 210.88 75.77"/><polygon class="cls-29" points="210.88 74.53 205.1 71.19 205.1 71.82 210.88 75.16 210.88 74.53"/><polygon class="cls-28" points="204.28 73.13 191.92 65.97 191.92 66.6 204.28 73.76 204.28 73.13"/><polygon class="cls-28" points="210.88 78.18 191.92 67.21 191.92 67.84 210.88 78.8 210.88 78.18"/><polygon class="cls-29" points="210.88 76.94 205.1 73.6 205.1 74.23 210.88 77.57 210.88 76.94"/><polygon class="cls-28" points="204.28 76.61 191.92 69.45 191.92 70.08 204.28 77.24 204.28 76.61"/><polygon class="cls-28" points="210.88 81.66 191.92 70.69 191.92 71.32 210.88 82.28 210.88 81.66"/><polygon class="cls-28" points="210.88 80.42 205.1 77.08 205.1 77.71 210.88 81.05 210.88 80.42"/><polygon class="cls-28" points="204.28 79.02 191.92 71.86 191.92 72.49 204.28 79.65 204.28 79.02"/><polygon class="cls-28" points="210.88 84.06 191.92 73.1 191.92 73.73 210.88 84.69 210.88 84.06"/><polygon class="cls-28" points="210.88 82.83 205.1 79.49 205.1 80.11 210.88 83.46 210.88 82.83"/><polygon class="cls-28" points="204.28 82.5 191.92 75.34 191.92 75.97 204.28 83.13 204.28 82.5"/><polygon class="cls-28" points="210.88 87.55 191.92 76.58 191.92 77.21 210.88 88.17 210.88 87.55"/><polygon class="cls-28" points="210.88 86.31 205.1 82.97 205.1 83.59 210.88 86.94 210.88 86.31"/><polygon class="cls-29" points="204.28 84.91 191.92 77.75 191.92 78.38 204.28 85.54 204.28 84.91"/><polygon class="cls-28" points="210.88 89.95 191.92 78.99 191.92 79.62 210.88 90.58 210.88 89.95"/><polygon class="cls-28" points="210.88 88.72 205.1 85.38 205.1 86 210.88 89.35 210.88 88.72"/><polygon class="cls-28" points="204.28 88.39 191.92 81.23 191.92 81.86 204.28 89.02 204.28 88.39"/><polygon class="cls-28" points="210.88 93.44 191.92 82.47 191.92 83.1 210.88 94.06 210.88 93.44"/><polygon class="cls-29" points="210.88 92.2 205.1 88.86 205.1 89.48 210.88 92.83 210.88 92.2"/><polygon class="cls-28" points="204.28 90.8 191.92 83.64 191.92 84.27 204.28 91.43 204.28 90.8"/><polygon class="cls-28" points="210.88 95.84 191.92 84.88 191.92 85.5 210.88 96.47 210.88 95.84"/><polygon class="cls-29" points="210.88 94.61 205.1 91.27 205.1 91.89 210.88 95.24 210.88 94.61"/><polygon class="cls-28" points="204.28 94.28 191.92 87.12 191.92 87.75 204.28 94.91 204.28 94.28"/><polygon class="cls-28" points="210.88 99.32 191.92 88.36 191.92 88.98 210.88 99.95 210.88 99.32"/><polygon class="cls-29" points="210.88 98.09 205.1 94.75 205.1 95.37 210.88 98.72 210.88 98.09"/><polygon class="cls-28" points="204.28 96.69 191.92 89.53 191.92 90.16 204.28 97.32 204.28 96.69"/><polygon class="cls-29" points="210.88 101.73 191.92 90.77 191.92 91.39 210.88 102.36 210.88 101.73"/><polygon class="cls-28" points="210.88 100.5 205.1 97.15 205.1 97.78 210.88 101.13 210.88 100.5"/><g class="cls-1"><polygon class="cls-2" points="16.6 15.09 16.6 16.26 21.5 19.09 21.5 17.92 16.6 15.09"/><polygon class="cls-2" points="16.6 17.22 16.6 18.39 21.5 21.22 21.5 20.05 16.6 17.22"/><polygon class="cls-2" points="16.6 19.35 16.6 20.52 21.5 23.35 21.5 22.18 16.6 19.35"/><polygon class="cls-2" points="53.6 44 53.6 42.83 23.34 25.38 23.34 26.54 53.6 44"/><polygon class="cls-2" points="16.6 21.49 16.6 22.65 21.5 25.48 21.5 24.32 16.6 21.49"/><polygon class="cls-2" points="16.6 23.62 16.6 24.79 21.5 27.61 21.5 26.45 16.6 23.62"/><polygon class="cls-2" points="53.6 46.13 53.6 44.96 23.34 27.51 23.34 28.68 53.6 46.13"/><polygon class="cls-2" points="16.6 30.02 16.6 31.18 21.5 34.01 21.5 32.84 16.6 30.02"/><polygon class="cls-2" points="16.6 32.15 16.6 33.31 21.5 36.14 21.5 34.98 16.6 32.15"/><polygon class="cls-2" points="16.6 40.68 16.6 41.84 21.5 44.67 21.5 43.51 16.6 40.68"/><polygon class="cls-2" points="16.6 42.81 16.6 43.98 21.5 46.8 21.5 45.64 16.6 42.81"/><polygon class="cls-2" points="42.43 57.71 23.34 46.7 23.34 47.87 42.43 58.88 42.43 57.71"/><polygon class="cls-2" points="43.44 58.29 43.44 59.46 53.6 65.32 53.6 64.16 43.44 58.29"/><polygon class="cls-2" points="32.93 50.1 23.34 44.57 23.34 45.73 32.93 51.27 32.93 50.1"/><polygon class="cls-2" points="33.94 50.68 33.94 51.85 53.6 63.19 53.6 62.02 33.94 50.68"/><polygon class="cls-2" points="51.02 54.13 51.02 55.3 53.6 56.79 53.6 55.63 51.02 54.13"/><polygon class="cls-2" points="36.94 43.88 23.34 36.04 23.34 37.2 36.94 45.05 36.94 43.88"/><polygon class="cls-2" points="31.36 23.61 23.34 18.98 23.34 20.15 31.36 24.77 31.36 23.61"/><polygon class="cls-2" points="44.52 31.2 32.37 24.19 32.37 25.36 44.52 32.36 44.52 31.2"/><polygon class="cls-2" points="37.44 29.25 28.89 24.31 28.89 25.48 37.44 30.41 37.44 29.25"/><polygon class="cls-2" points="46.41 34.42 38.45 29.82 38.45 30.99 46.41 35.59 46.41 34.42"/><polygon class="cls-2" points="47.42 35 47.42 36.17 53.6 39.73 53.6 38.57 47.42 35"/><polygon class="cls-2" points="24.92 24.16 24.92 25.32 31.36 29.04 31.36 27.87 24.92 24.16"/><polygon class="cls-2" points="51.08 39.24 32.37 28.45 32.37 29.62 51.08 40.41 51.08 39.24"/><polygon class="cls-2" points="40.37 39.46 28.14 32.41 28.14 33.58 40.37 40.63 40.37 39.46"/><polygon class="cls-2" points="51.08 45.64 41.38 40.04 41.38 41.21 51.08 46.81 51.08 45.64"/><polygon class="cls-2" points="50.01 51.42 37.94 44.46 37.94 45.63 50.01 52.59 50.01 51.42"/><polygon class="cls-2" points="43.44 49.76 43.44 50.93 50.01 54.72 50.01 53.55 43.44 49.76"/><polygon class="cls-2" points="25.7 39.53 23.34 38.17 23.34 39.34 25.7 40.7 25.7 39.53"/><polygon class="cls-2" points="30.14 42.09 30.14 43.26 42.43 50.35 42.43 49.18 30.14 42.09"/><polygon class="cls-2" points="29.13 41.51 26.71 40.12 26.71 41.28 29.13 42.68 29.13 41.51"/><polygon class="cls-2" points="40.16 50 26.71 42.25 26.71 43.41 40.16 51.17 40.16 50"/></g><path class="cls-30" d="M70.8,31.48,50.89,20a1.88,1.88,0,0,0-2,.08h0l-4.37,2.52,2,2.76.76.87V45.95A3.29,3.29,0,0,0,49,48.8l14.91,8.62.15.83,3,4.26,4.68-2.75h0l0,0h0a1.5,1.5,0,0,0,.71-1.28v-24A3.39,3.39,0,0,0,70.8,31.48Z"/><path class="cls-11" d="M66.15,34.22,46,22.59a1.48,1.48,0,0,0-2.21,1.28V48a3.29,3.29,0,0,0,1.64,2.85L65.58,62.48a1.51,1.51,0,0,0,2.27-1.31v-24A3.39,3.39,0,0,0,66.15,34.22Z"/><path class="cls-3" d="M67.08,62.49l0,0h0Z"/><path class="cls-31" d="M67.85,61.17v-24A3.35,3.35,0,0,0,67.62,36l4.67-2.69a3.36,3.36,0,0,1,.21,1.11v24a1.49,1.49,0,0,1-.71,1.28h0l0,0h0l-4.64,2.73A1.5,1.5,0,0,0,67.85,61.17Z"/><path class="cls-32" d="M75,44.07,55.08,32.58a1.88,1.88,0,0,0-2,.08h0l-4.37,2.52,2,2.76.76.87V58.54a3.29,3.29,0,0,0,1.64,2.85L68.05,70l.15.83,3,4.26,4.68-2.75h0l0,0h0A1.5,1.5,0,0,0,76.69,71V47A3.39,3.39,0,0,0,75,44.07Z"/><path class="cls-21" d="M70.34,46.81,50.19,35.18A1.48,1.48,0,0,0,48,36.46V60.58a3.29,3.29,0,0,0,1.64,2.85L69.77,75.08A1.51,1.51,0,0,0,72,73.77v-24A3.39,3.39,0,0,0,70.34,46.81Z"/><path class="cls-3" d="M71.27,75.08l0,0h0Z"/><path class="cls-33" d="M72,73.77v-24a3.35,3.35,0,0,0-.23-1.16l4.67-2.69A3.36,3.36,0,0,1,76.69,47V71A1.49,1.49,0,0,1,76,72.31h0l0,0h0l-4.64,2.73A1.5,1.5,0,0,0,72,73.77Z"/><path class="cls-2" d="M53.29,41.71,33.37,30.22a1.88,1.88,0,0,0-2,.08h0L27,32.82l2,2.76.76.87V56.18A3.29,3.29,0,0,0,31.44,59l14.91,8.62.15.83,3,4.26L54.22,70h0l0,0h0A1.5,1.5,0,0,0,55,68.67v-24A3.39,3.39,0,0,0,53.29,41.71Z"/><path class="cls-3" d="M48.63,44.45,28.48,32.82a1.48,1.48,0,0,0-2.21,1.28V58.22a3.29,3.29,0,0,0,1.64,2.85L48.06,72.72a1.51,1.51,0,0,0,2.27-1.31v-24A3.39,3.39,0,0,0,48.63,44.45Z"/><path class="cls-3" d="M49.57,72.72l0,0h0Z"/><path class="cls-4" d="M50.33,71.41v-24a3.35,3.35,0,0,0-.23-1.16l4.67-2.69A3.36,3.36,0,0,1,55,44.65v24A1.49,1.49,0,0,1,54.27,70h0l0,0h0l-4.64,2.73A1.5,1.5,0,0,0,50.33,71.41Z"/><path class="cls-34" d="M44.53,46.83,24.62,35.34a1.88,1.88,0,0,0-2,.08h0l-4.37,2.53,2,2.76.76.87V61.3a3.29,3.29,0,0,0,1.64,2.85l14.91,8.62.15.83,3,4.26,4.68-2.75h0l0,0h0a1.5,1.5,0,0,0,.71-1.28v-24A3.39,3.39,0,0,0,44.53,46.83Z"/><path class="cls-29" d="M39.88,49.57,19.73,37.94a1.48,1.48,0,0,0-2.21,1.28V63.34a3.29,3.29,0,0,0,1.64,2.85L39.31,77.83a1.51,1.51,0,0,0,2.27-1.31v-24A3.39,3.39,0,0,0,39.88,49.57Z"/><path class="cls-3" d="M40.81,77.84l0,0h0Z"/><path class="cls-35" d="M41.57,76.52v-24a3.35,3.35,0,0,0-.23-1.16L46,48.66a3.36,3.36,0,0,1,.21,1.11v24a1.49,1.49,0,0,1-.71,1.28h0l0,0h0l-4.64,2.73A1.5,1.5,0,0,0,41.57,76.52Z"/><path class="cls-36" d="M35.77,51.95,15.86,40.45a1.88,1.88,0,0,0-2,.08h0L9.49,43.06l2,2.76.76.87V66.41a3.29,3.29,0,0,0,1.64,2.85l14.91,8.62.15.83L32,83l4.68-2.75h0l0,0h0a1.5,1.5,0,0,0,.71-1.28v-24A3.39,3.39,0,0,0,35.77,51.95Z"/><path class="cls-37" d="M31.12,54.68,11,43.06a1.48,1.48,0,0,0-2.21,1.28V68.45A3.29,3.29,0,0,0,10.4,71.3L30.55,83a1.51,1.51,0,0,0,2.27-1.31v-24A3.39,3.39,0,0,0,31.12,54.68Z"/><path class="cls-3" d="M32.06,83l0,0h0Z"/><path class="cls-38" d="M32.82,81.64v-24a3.35,3.35,0,0,0-.23-1.16l4.67-2.69a3.36,3.36,0,0,1,.21,1.11v24a1.49,1.49,0,0,1-.71,1.28h0l0,0h0l-4.64,2.73A1.5,1.5,0,0,0,32.82,81.64Z"/><path class="cls-2" d="M27,57.06,7.1,45.57a1.88,1.88,0,0,0-2,.08h0L.74,48.17l2,2.76.76.87V71.53a3.29,3.29,0,0,0,1.64,2.85L20.08,83l.15.83,3,4.26,4.68-2.75h0l0,0h0A1.49,1.49,0,0,0,28.72,84V60A3.39,3.39,0,0,0,27,57.06Z"/><path class="cls-3" d="M22.36,59.8,2.21,48.17A1.48,1.48,0,0,0,0,49.45V73.57a3.29,3.29,0,0,0,1.64,2.85L21.79,88.07a1.51,1.51,0,0,0,2.27-1.31v-24A3.39,3.39,0,0,0,22.36,59.8Z"/><path class="cls-3" d="M23.3,88.07l0,0h0Z"/><path class="cls-4" d="M24.06,86.76v-24a3.35,3.35,0,0,0-.23-1.16l4.67-2.69A3.36,3.36,0,0,1,28.72,60V84A1.49,1.49,0,0,1,28,85.3h0l0,0h0l-4.64,2.73A1.5,1.5,0,0,0,24.06,86.76Z"/><path class="cls-39" d="M4.79,59.72,2.34,58.3l0,8.82,1.63.94V64.93l.7.4a2.73,2.73,0,0,0,2.21.52c.52-.21.78-.78.78-1.73a4.42,4.42,0,0,0-.72-2.48A6.16,6.16,0,0,0,4.79,59.72ZM5.61,64a1.51,1.51,0,0,1-1.12-.31L4,63.39V60.78l.74.43a2.77,2.77,0,0,1,1,.88A2.12,2.12,0,0,1,6,63.24C6,63.67,5.86,63.93,5.61,64Z"/><polygon class="cls-40" points="13.31 68.1 10.28 66.35 10.29 62.89 8.66 61.95 8.63 70.77 10.26 71.71 10.27 67.9 13.31 69.66 13.3 73.46 14.92 74.4 14.95 65.58 13.32 64.64 13.31 68.1"/><path class="cls-41" d="M21,69.78a6.17,6.17,0,0,0-2.12-1.92l-2.45-1.41,0,8.82,1.63.94V73.07l.7.4A2.71,2.71,0,0,0,21,74c.52-.21.78-.78.78-1.73A4.42,4.42,0,0,0,21,69.78Zm-1.3,2.37a1.52,1.52,0,0,1-1.12-.31l-.53-.31V68.92l.74.43a2.77,2.77,0,0,1,1,.88,2.12,2.12,0,0,1,.31,1.15C20.1,71.82,20,72.07,19.73,72.16Z"/><path class="cls-2" d="M57.71,49a.84.84,0,0,1-.14.56c-.09.09-.23.08-.43,0a2.41,2.41,0,0,1-.44-.33v1a2.61,2.61,0,0,0,.59.44,1.12,1.12,0,0,0,.71.18.63.63,0,0,0,.48-.38,2,2,0,0,0,.18-.91l0-5.74-1-.55Z"/><path class="cls-2" d="M60.39,49.2l1.35.78L62,51.64l1,.56L61.72,45.5l-1.3-.75L59.13,50l1,.55ZM61,46.63c0-.25.09-.49.12-.7,0,.12,0,.36.1.74l.11.69.27,1.54-1-.56C60.78,47.44,60.9,46.88,61,46.63Z"/><path class="cls-2" d="M65.32,53.54l1.23-5.22-1-.56L64.9,51a12.08,12.08,0,0,0-.19,1.22c-.06-.61-.12-1.08-.18-1.43l-.66-4-1-.56,1.19,6.62Z"/><path class="cls-2" d="M67.39,54.74l.3-1.32,1.34.77.29,1.67,1,.56L69,49.72,67.73,49l-1.29,5.21Zm.86-3.89q.07-.38.12-.7c0,.12,0,.36.1.73s.1.6.11.69l.27,1.54-1-.56C68.09,51.66,68.21,51.1,68.26,50.84Z"/><polygon class="cls-2" points="66.41 56.8 59.13 52.58 59.13 52.95 66.41 57.17 66.41 56.8"/><polygon class="cls-2" points="59.13 53.68 70.29 60.14 70.29 59.77 59.13 53.31 59.13 53.68"/><polygon class="cls-2" points="66.89 57.44 70.29 59.41 70.29 59.04 66.89 57.07 66.89 57.44"/><polygon class="cls-2" points="66.41 58.22 59.13 54 59.13 54.37 66.41 58.59 66.41 58.22"/><polygon class="cls-2" points="59.13 55.1 70.29 61.56 70.29 61.19 59.13 54.73 59.13 55.1"/><polygon class="cls-2" points="66.89 58.86 70.29 60.83 70.29 60.46 66.89 58.49 66.89 58.86"/><polygon class="cls-2" points="66.41 60.27 59.13 56.05 59.13 56.42 66.41 60.64 66.41 60.27"/><polygon class="cls-2" points="59.13 57.15 70.29 63.61 70.29 63.24 59.13 56.78 59.13 57.15"/><polygon class="cls-2" points="66.89 60.91 70.29 62.88 70.29 62.51 66.89 60.54 66.89 60.91"/><polygon class="cls-2" points="66.41 61.69 59.13 57.47 59.13 57.84 66.41 62.06 66.41 61.69"/><polygon class="cls-2" points="59.13 58.57 70.29 65.03 70.29 64.66 59.13 58.2 59.13 58.57"/><polygon class="cls-2" points="66.89 62.33 70.29 64.3 70.29 63.93 66.89 61.96 66.89 62.33"/><polygon class="cls-2" points="66.41 63.74 59.13 59.52 59.13 59.89 66.41 64.11 66.41 63.74"/><polygon class="cls-2" points="59.13 60.62 70.29 67.08 70.29 66.71 59.13 60.25 59.13 60.62"/><polygon class="cls-2" points="66.89 64.38 70.29 66.35 70.29 65.98 66.89 64.01 66.89 64.38"/><polygon class="cls-2" points="66.41 65.16 59.13 60.94 59.13 61.31 66.41 65.53 66.41 65.16"/><polygon class="cls-2" points="59.13 62.04 70.29 68.5 70.29 68.13 59.13 61.67 59.13 62.04"/><polygon class="cls-2" points="66.89 65.8 70.29 67.77 70.29 67.4 66.89 65.43 66.89 65.8"/><polygon class="cls-2" points="66.41 67.2 59.13 62.99 59.13 63.36 66.41 67.58 66.41 67.2"/><polygon class="cls-2" points="59.13 64.09 70.29 70.55 70.29 70.18 59.13 63.72 59.13 64.09"/><polygon class="cls-2" points="66.89 67.85 70.29 69.82 70.29 69.45 66.89 67.48 66.89 67.85"/><polygon class="cls-2" points="66.41 68.62 59.13 64.41 59.13 64.78 66.41 68.99 66.41 68.62"/><polygon class="cls-2" points="59.13 65.5 70.29 71.97 70.29 71.59 59.13 65.14 59.13 65.5"/><polygon class="cls-2" points="66.89 69.27 70.29 71.24 70.29 70.87 66.89 68.9 66.89 69.27"/></g></g></svg>